%TF.GenerationSoftware,KiCad,Pcbnew,(6.0.1)*%
%TF.CreationDate,2022-02-21T20:44:30-05:00*%
%TF.ProjectId,cc-online-2,63632d6f-6e6c-4696-9e65-2d322e6b6963,rev?*%
%TF.SameCoordinates,Original*%
%TF.FileFunction,Profile,NP*%
%FSLAX46Y46*%
G04 Gerber Fmt 4.6, Leading zero omitted, Abs format (unit mm)*
G04 Created by KiCad (PCBNEW (6.0.1)) date 2022-02-21 20:44:30*
%MOMM*%
%LPD*%
G01*
G04 APERTURE LIST*
%TA.AperFunction,Profile*%
%ADD10C,0.100000*%
%TD*%
G04 APERTURE END LIST*
D10*
%TO.C,Ref\u002A\u002A*%
X106987800Y-61992570D02*
X106607400Y-62077590D01*
X106607400Y-62077590D02*
X106263500Y-62210710D01*
X106263500Y-62210710D02*
X105964000Y-62386220D01*
X105964000Y-62386220D02*
X105833400Y-62488090D01*
X105833400Y-62488090D02*
X105717000Y-62598420D01*
X105717000Y-62598420D02*
X105615800Y-62716490D01*
X105615800Y-62716490D02*
X105530700Y-62841580D01*
X105530700Y-62841580D02*
X105462800Y-62972990D01*
X105462800Y-62972990D02*
X105413000Y-63110010D01*
X105413000Y-63110010D02*
X105382400Y-63251910D01*
X105382400Y-63251910D02*
X105372000Y-63397980D01*
X105372000Y-63397980D02*
X105380000Y-63525090D01*
X105380000Y-63525090D02*
X105404200Y-63651190D01*
X105404200Y-63651190D02*
X102276300Y-63651190D01*
X102276300Y-63651190D02*
X102083100Y-63670550D01*
X102083100Y-63670550D02*
X101903400Y-63726090D01*
X101903400Y-63726090D02*
X101741000Y-63814030D01*
X101741000Y-63814030D02*
X101599600Y-63930590D01*
X101599600Y-63930590D02*
X101483100Y-64071970D01*
X101483100Y-64071970D02*
X101395100Y-64234390D01*
X101395100Y-64234390D02*
X101339600Y-64414070D01*
X101339600Y-64414070D02*
X101320200Y-64607210D01*
X101320200Y-64607210D02*
X101320200Y-64627880D01*
X101320200Y-64627880D02*
X101339600Y-64821020D01*
X101339600Y-64821020D02*
X101395100Y-65000700D01*
X101395100Y-65000700D02*
X101483100Y-65163120D01*
X101483100Y-65163120D02*
X101599600Y-65304500D01*
X101599600Y-65304500D02*
X101741000Y-65421050D01*
X101741000Y-65421050D02*
X101903400Y-65509000D01*
X101903400Y-65509000D02*
X102083100Y-65564540D01*
X102083100Y-65564540D02*
X102276300Y-65583890D01*
X102276300Y-65583890D02*
X112497300Y-65583890D01*
X112497300Y-65583890D02*
X112690500Y-65564540D01*
X112690500Y-65564540D02*
X112870200Y-65509000D01*
X112870200Y-65509000D02*
X113032600Y-65421050D01*
X113032600Y-65421050D02*
X113174000Y-65304500D01*
X113174000Y-65304500D02*
X113290500Y-65163120D01*
X113290500Y-65163120D02*
X113378500Y-65000700D01*
X113378500Y-65000700D02*
X113434000Y-64821020D01*
X113434000Y-64821020D02*
X113453400Y-64627880D01*
X113453400Y-64627880D02*
X113453400Y-64607210D01*
X113453400Y-64607210D02*
X113434000Y-64414070D01*
X113434000Y-64414070D02*
X113378500Y-64234390D01*
X113378500Y-64234390D02*
X113290500Y-64071970D01*
X113290500Y-64071970D02*
X113174000Y-63930590D01*
X113174000Y-63930590D02*
X113032600Y-63814030D01*
X113032600Y-63814030D02*
X112870200Y-63726090D01*
X112870200Y-63726090D02*
X112690500Y-63670550D01*
X112690500Y-63670550D02*
X112497300Y-63651190D01*
X112497300Y-63651190D02*
X109422100Y-63651190D01*
X109422100Y-63651190D02*
X109446100Y-63525090D01*
X109446100Y-63525090D02*
X109454100Y-63397980D01*
X109454100Y-63397980D02*
X109444100Y-63255990D01*
X109444100Y-63255990D02*
X109414500Y-63116400D01*
X109414500Y-63116400D02*
X109365900Y-62980160D01*
X109365900Y-62980160D02*
X109298700Y-62848200D01*
X109298700Y-62848200D02*
X109213700Y-62721480D01*
X109213700Y-62721480D02*
X109111200Y-62600930D01*
X109111200Y-62600930D02*
X108991900Y-62487500D01*
X108991900Y-62487500D02*
X108856300Y-62382130D01*
X108856300Y-62382130D02*
X108706500Y-62286700D01*
X108706500Y-62286700D02*
X108545400Y-62202720D01*
X108545400Y-62202720D02*
X108194000Y-62070710D01*
X108194000Y-62070710D02*
X107813000Y-61989220D01*
X107813000Y-61989220D02*
X107396500Y-61961370D01*
X107396500Y-61961370D02*
X106987800Y-61992570D01*
X106987800Y-61992570D02*
X106987800Y-61992570D01*
X98985500Y-61332690D02*
X99130600Y-60901950D01*
X99130600Y-60901950D02*
X99289000Y-60537960D01*
X99289000Y-60537960D02*
X99458800Y-60236580D01*
X99458800Y-60236580D02*
X99638200Y-59993650D01*
X99638200Y-59993650D02*
X99825400Y-59805030D01*
X99825400Y-59805030D02*
X100018400Y-59666570D01*
X100018400Y-59666570D02*
X100215600Y-59574120D01*
X100215600Y-59574120D02*
X100415100Y-59523540D01*
X100415100Y-59523540D02*
X114101700Y-59523540D01*
X114101700Y-59523540D02*
X114155100Y-59519830D01*
X114155100Y-59519830D02*
X114300300Y-59526270D01*
X114300300Y-59526270D02*
X114514600Y-59569200D01*
X114514600Y-59569200D02*
X114640600Y-59612590D01*
X114640600Y-59612590D02*
X114775400Y-59674970D01*
X114775400Y-59674970D02*
X114916200Y-59759650D01*
X114916200Y-59759650D02*
X115060100Y-59869920D01*
X115060100Y-59869920D02*
X115204300Y-60009070D01*
X115204300Y-60009070D02*
X115346100Y-60180390D01*
X115346100Y-60180390D02*
X115482500Y-60387180D01*
X115482500Y-60387180D02*
X115610700Y-60632720D01*
X115610700Y-60632720D02*
X115728000Y-60920320D01*
X115728000Y-60920320D02*
X115831400Y-61253270D01*
X115831400Y-61253270D02*
X116195800Y-62656900D01*
X116195800Y-62656900D02*
X116500400Y-63889970D01*
X116500400Y-63889970D02*
X116787000Y-65099810D01*
X116787000Y-65099810D02*
X116952400Y-65078410D01*
X116952400Y-65078410D02*
X117130300Y-65068860D01*
X117130300Y-65068860D02*
X117346100Y-65075350D01*
X117346100Y-65075350D02*
X119910100Y-63198870D01*
X119910100Y-63198870D02*
X120033200Y-63145150D01*
X120033200Y-63145150D02*
X120344900Y-63029220D01*
X120344900Y-63029220D02*
X120544400Y-62969130D01*
X120544400Y-62969130D02*
X120758800Y-62918950D01*
X120758800Y-62918950D02*
X120977200Y-62887150D01*
X120977200Y-62887150D02*
X121188700Y-62882210D01*
X121188700Y-62882210D02*
X121407000Y-62901860D01*
X121407000Y-62901860D02*
X121647700Y-62939940D01*
X121647700Y-62939940D02*
X121903200Y-62999060D01*
X121903200Y-62999060D02*
X122165900Y-63081820D01*
X122165900Y-63081820D02*
X122428300Y-63190850D01*
X122428300Y-63190850D02*
X122682700Y-63328760D01*
X122682700Y-63328760D02*
X122921600Y-63498160D01*
X122921600Y-63498160D02*
X123137400Y-63701670D01*
X123137400Y-63701670D02*
X123449100Y-64069550D01*
X123449100Y-64069550D02*
X123613900Y-64311900D01*
X123613900Y-64311900D02*
X123686600Y-64465460D01*
X123686600Y-64465460D02*
X123722100Y-64566960D01*
X123722100Y-64566960D02*
X123821800Y-64869510D01*
X123821800Y-64869510D02*
X123906200Y-65172070D01*
X123906200Y-65172070D02*
X123969600Y-65337370D01*
X123969600Y-65337370D02*
X124084500Y-65595580D01*
X124084500Y-65595580D02*
X124197300Y-65853240D01*
X124197300Y-65853240D02*
X124254100Y-66016890D01*
X124254100Y-66016890D02*
X124277000Y-66178220D01*
X124277000Y-66178220D02*
X124303400Y-66470000D01*
X124303400Y-66470000D02*
X124303000Y-66860400D01*
X124303000Y-66860400D02*
X124283200Y-67082700D01*
X124283200Y-67082700D02*
X124245300Y-67317700D01*
X124245300Y-67317700D02*
X124238200Y-67405400D01*
X124238200Y-67405400D02*
X124240900Y-67620300D01*
X124240900Y-67620300D02*
X124380800Y-69024400D01*
X124380800Y-69024400D02*
X124530600Y-69253100D01*
X124530600Y-69253100D02*
X124649800Y-69477100D01*
X124649800Y-69477100D02*
X124737800Y-69719000D01*
X124737800Y-69719000D02*
X124784900Y-69961900D01*
X124784900Y-69961900D02*
X124814000Y-70188000D01*
X124814000Y-70188000D02*
X124832900Y-70419700D01*
X124832900Y-70419700D02*
X124851300Y-70595700D01*
X124851300Y-70595700D02*
X124899100Y-70853800D01*
X124899100Y-70853800D02*
X124956200Y-71075800D01*
X124956200Y-71075800D02*
X124983800Y-71215500D01*
X124983800Y-71215500D02*
X124987200Y-71476000D01*
X124987200Y-71476000D02*
X124982900Y-71703900D01*
X124982900Y-71703900D02*
X124967300Y-71910100D01*
X124967300Y-71910100D02*
X124926400Y-72120100D01*
X124926400Y-72120100D02*
X124866800Y-72356300D01*
X124866800Y-72356300D02*
X124789600Y-72628900D01*
X124789600Y-72628900D02*
X125047900Y-72991100D01*
X125047900Y-72991100D02*
X125285600Y-73340500D01*
X125285600Y-73340500D02*
X125427700Y-73498900D01*
X125427700Y-73498900D02*
X125647300Y-73764200D01*
X125647300Y-73764200D02*
X125854500Y-74090600D01*
X125854500Y-74090600D02*
X125984300Y-74309900D01*
X125984300Y-74309900D02*
X126067700Y-74497800D01*
X126067700Y-74497800D02*
X126149100Y-74657900D01*
X126149100Y-74657900D02*
X126236400Y-74795700D01*
X126236400Y-74795700D02*
X126819600Y-75444000D01*
X126819600Y-75444000D02*
X127317500Y-75982200D01*
X127317500Y-75982200D02*
X128491600Y-77443600D01*
X128491600Y-77443600D02*
X128916800Y-78071500D01*
X128916800Y-78071500D02*
X129276900Y-78620400D01*
X129276900Y-78620400D02*
X129583200Y-79116000D01*
X129583200Y-79116000D02*
X129851600Y-79615800D01*
X129851600Y-79615800D02*
X130138900Y-80209000D01*
X130138900Y-80209000D02*
X130391800Y-80786300D01*
X130391800Y-80786300D02*
X130556600Y-81238300D01*
X130556600Y-81238300D02*
X130662600Y-81607300D01*
X130662600Y-81607300D02*
X130762300Y-82004200D01*
X130762300Y-82004200D02*
X130837400Y-82423100D01*
X130837400Y-82423100D02*
X130869400Y-82857800D01*
X130869400Y-82857800D02*
X130872900Y-83263100D01*
X130872900Y-83263100D02*
X130862400Y-83625200D01*
X130862400Y-83625200D02*
X130819600Y-83985000D01*
X130819600Y-83985000D02*
X130726100Y-84383700D01*
X130726100Y-84383700D02*
X130589200Y-84775000D01*
X130589200Y-84775000D02*
X130450200Y-85074300D01*
X130450200Y-85074300D02*
X130299300Y-85333000D01*
X130299300Y-85333000D02*
X130353400Y-85705100D01*
X130353400Y-85705100D02*
X130688100Y-86248800D01*
X130688100Y-86248800D02*
X130842200Y-86506400D01*
X130842200Y-86506400D02*
X130954500Y-86719800D01*
X130954500Y-86719800D02*
X131046500Y-86919000D01*
X131046500Y-86919000D02*
X131115700Y-87151500D01*
X131115700Y-87151500D02*
X131166800Y-87372400D01*
X131166800Y-87372400D02*
X131197400Y-87601100D01*
X131197400Y-87601100D02*
X131198500Y-87819100D01*
X131198500Y-87819100D02*
X131185000Y-88016600D01*
X131185000Y-88016600D02*
X131160200Y-88215000D01*
X131160200Y-88215000D02*
X131129200Y-89136900D01*
X131129200Y-89136900D02*
X131108500Y-89326600D01*
X131108500Y-89326600D02*
X131062900Y-89515400D01*
X131062900Y-89515400D02*
X130976200Y-89724000D01*
X130976200Y-89724000D02*
X130936600Y-89825900D01*
X130936600Y-89825900D02*
X130925400Y-89925100D01*
X130925400Y-89925100D02*
X130936100Y-90022900D01*
X130936100Y-90022900D02*
X130962600Y-90120700D01*
X130962600Y-90120700D02*
X131037400Y-90322600D01*
X131037400Y-90322600D02*
X131099400Y-90542300D01*
X131099400Y-90542300D02*
X131108500Y-91394000D01*
X131108500Y-91394000D02*
X131135400Y-92210200D01*
X131135400Y-92210200D02*
X131179600Y-92992100D01*
X131179600Y-92992100D02*
X131240400Y-93740700D01*
X131240400Y-93740700D02*
X131317300Y-94457300D01*
X131317300Y-94457300D02*
X131409700Y-95143200D01*
X131409700Y-95143200D02*
X131517100Y-95799300D01*
X131517100Y-95799300D02*
X131638800Y-96427000D01*
X131638800Y-96427000D02*
X131774300Y-97027400D01*
X131774300Y-97027400D02*
X131923100Y-97601600D01*
X131923100Y-97601600D02*
X132084400Y-98150900D01*
X132084400Y-98150900D02*
X132257800Y-98676400D01*
X132257800Y-98676400D02*
X132442700Y-99179400D01*
X132442700Y-99179400D02*
X132638500Y-99660900D01*
X132638500Y-99660900D02*
X132844600Y-100122200D01*
X132844600Y-100122200D02*
X133060400Y-100564400D01*
X133060400Y-100564400D02*
X133285500Y-100988700D01*
X133285500Y-100988700D02*
X133519100Y-101396300D01*
X133519100Y-101396300D02*
X134009900Y-102166000D01*
X134009900Y-102166000D02*
X134528100Y-102883100D01*
X134528100Y-102883100D02*
X135069200Y-103556800D01*
X135069200Y-103556800D02*
X135628600Y-104196600D01*
X135628600Y-104196600D02*
X136201600Y-104811900D01*
X136201600Y-104811900D02*
X137370200Y-106006700D01*
X137370200Y-106006700D02*
X137956500Y-106605000D01*
X137956500Y-106605000D02*
X138538100Y-107216400D01*
X138538100Y-107216400D02*
X139110200Y-107850400D01*
X139110200Y-107850400D02*
X139668300Y-108516400D01*
X139668300Y-108516400D02*
X140207900Y-109223800D01*
X140207900Y-109223800D02*
X140724200Y-109982000D01*
X140724200Y-109982000D02*
X140972200Y-110383100D01*
X140972200Y-110383100D02*
X141212600Y-110800400D01*
X141212600Y-110800400D02*
X141445000Y-111235100D01*
X141445000Y-111235100D02*
X141668600Y-111688500D01*
X141668600Y-111688500D02*
X141883000Y-112161500D01*
X141883000Y-112161500D02*
X142087600Y-112655500D01*
X142087600Y-112655500D02*
X142281700Y-113171700D01*
X142281700Y-113171700D02*
X142464900Y-113711100D01*
X142464900Y-113711100D02*
X142636500Y-114275000D01*
X142636500Y-114275000D02*
X142795900Y-114864500D01*
X142795900Y-114864500D02*
X142942600Y-115480800D01*
X142942600Y-115480800D02*
X143076100Y-116125200D01*
X143076100Y-116125200D02*
X143195600Y-116798700D01*
X143195600Y-116798700D02*
X143300700Y-117502500D01*
X143300700Y-117502500D02*
X143390800Y-118237900D01*
X143390800Y-118237900D02*
X143465300Y-119006000D01*
X143465300Y-119006000D02*
X143523600Y-119808000D01*
X143523600Y-119808000D02*
X143565100Y-120645000D01*
X143565100Y-120645000D02*
X143589300Y-121518300D01*
X143589300Y-121518300D02*
X143595600Y-122429000D01*
X143595600Y-122429000D02*
X143595600Y-135343900D01*
X143595600Y-135343900D02*
X143593600Y-135725700D01*
X143593600Y-135725700D02*
X143580300Y-136011800D01*
X143580300Y-136011800D02*
X143545300Y-136216200D01*
X143545300Y-136216200D02*
X143516300Y-136292000D01*
X143516300Y-136292000D02*
X143478000Y-136352500D01*
X143478000Y-136352500D02*
X143428900Y-136399500D01*
X143428900Y-136399500D02*
X143367800Y-136434600D01*
X143367800Y-136434600D02*
X143204200Y-136476200D01*
X143204200Y-136476200D02*
X142976600Y-136491000D01*
X142976600Y-136491000D02*
X142674500Y-136492900D01*
X142674500Y-136492900D02*
X72472300Y-136492900D01*
X72472300Y-136492900D02*
X72345700Y-136488200D01*
X72345700Y-136488200D02*
X72215800Y-136470200D01*
X72215800Y-136470200D02*
X72067000Y-136431000D01*
X72067000Y-136431000D02*
X71918200Y-136362600D01*
X71918200Y-136362600D02*
X71788400Y-136256900D01*
X71788400Y-136256900D02*
X71736500Y-136187600D01*
X71736500Y-136187600D02*
X71696500Y-136105900D01*
X71696500Y-136105900D02*
X71670800Y-136010800D01*
X71670800Y-136010800D02*
X71661700Y-135901400D01*
X71661700Y-135901400D02*
X71661700Y-122892000D01*
X71661700Y-122892000D02*
X71670600Y-122428000D01*
X71670600Y-122428000D02*
X71696700Y-121980500D01*
X71696700Y-121980500D02*
X71739600Y-121548800D01*
X71739600Y-121548800D02*
X71798700Y-121132400D01*
X71798700Y-121132400D02*
X71873400Y-120730800D01*
X71873400Y-120730800D02*
X71963200Y-120343400D01*
X71963200Y-120343400D02*
X72067500Y-119969700D01*
X72067500Y-119969700D02*
X72185800Y-119609000D01*
X72185800Y-119609000D02*
X72317400Y-119260800D01*
X72317400Y-119260800D02*
X72461900Y-118924600D01*
X72461900Y-118924600D02*
X72618700Y-118599800D01*
X72618700Y-118599800D02*
X72787200Y-118285900D01*
X72787200Y-118285900D02*
X73157200Y-117688300D01*
X73157200Y-117688300D02*
X73567400Y-117127300D01*
X73567400Y-117127300D02*
X74013200Y-116598500D01*
X74013200Y-116598500D02*
X74490400Y-116097400D01*
X74490400Y-116097400D02*
X74994400Y-115619500D01*
X74994400Y-115619500D02*
X75520600Y-115160400D01*
X75520600Y-115160400D02*
X76064800Y-114715600D01*
X76064800Y-114715600D02*
X76622300Y-114280600D01*
X76622300Y-114280600D02*
X77759800Y-113422100D01*
X77759800Y-113422100D02*
X78897200Y-112549000D01*
X78897200Y-112549000D02*
X79454800Y-112095900D01*
X79454800Y-112095900D02*
X79998900Y-111625800D01*
X79998900Y-111625800D02*
X80525200Y-111134100D01*
X80525200Y-111134100D02*
X81029100Y-110616400D01*
X81029100Y-110616400D02*
X81506300Y-110068200D01*
X81506300Y-110068200D02*
X81952200Y-109485100D01*
X81952200Y-109485100D02*
X82362300Y-108862600D01*
X82362300Y-108862600D02*
X82552600Y-108535200D01*
X82552600Y-108535200D02*
X82732300Y-108196200D01*
X82732300Y-108196200D02*
X82900800Y-107845100D01*
X82900800Y-107845100D02*
X83057600Y-107481400D01*
X83057600Y-107481400D02*
X83202100Y-107104500D01*
X83202100Y-107104500D02*
X83333800Y-106713800D01*
X83333800Y-106713800D02*
X83452000Y-106308800D01*
X83452000Y-106308800D02*
X83556400Y-105888900D01*
X83556400Y-105888900D02*
X83646100Y-105453500D01*
X83646100Y-105453500D02*
X83720900Y-105002100D01*
X83720900Y-105002100D02*
X83779900Y-104534200D01*
X83779900Y-104534200D02*
X83822800Y-104049100D01*
X83822800Y-104049100D02*
X83849000Y-103546400D01*
X83849000Y-103546400D02*
X83857800Y-103025400D01*
X83857800Y-103025400D02*
X83870000Y-102856300D01*
X83870000Y-102856300D02*
X83898400Y-102668700D01*
X83898400Y-102668700D02*
X83953400Y-102433400D01*
X83953400Y-102433400D02*
X84043800Y-102166200D01*
X84043800Y-102166200D02*
X84178200Y-101882900D01*
X84178200Y-101882900D02*
X84365500Y-101599300D01*
X84365500Y-101599300D02*
X84481800Y-101462300D01*
X84481800Y-101462300D02*
X84614500Y-101331100D01*
X84614500Y-101331100D02*
X88706300Y-97680700D01*
X88706300Y-97680700D02*
X88681300Y-97469800D01*
X88681300Y-97469800D02*
X88674300Y-97232600D01*
X88674300Y-97232600D02*
X88692500Y-96931300D01*
X88692500Y-96931300D02*
X88752100Y-96583400D01*
X88752100Y-96583400D02*
X88802500Y-96397500D01*
X88802500Y-96397500D02*
X88869200Y-96206600D01*
X88869200Y-96206600D02*
X88954400Y-96012900D01*
X88954400Y-96012900D02*
X89060100Y-95818600D01*
X89060100Y-95818600D02*
X89188200Y-95625900D01*
X89188200Y-95625900D02*
X89340800Y-95437100D01*
X89340800Y-95437100D02*
X89353400Y-95403900D01*
X89353400Y-95403900D02*
X89352300Y-95268100D01*
X89352300Y-95268100D02*
X89328200Y-95144800D01*
X89328200Y-95144800D02*
X89278700Y-94975500D01*
X89278700Y-94975500D02*
X89196500Y-94753300D01*
X89196500Y-94753300D02*
X89074100Y-94471600D01*
X89074100Y-94471600D02*
X88313200Y-92870500D01*
X88313200Y-92870500D02*
X87842000Y-91897000D01*
X87842000Y-91897000D02*
X87746600Y-91510800D01*
X87746600Y-91510800D02*
X87636400Y-91144400D01*
X87636400Y-91144400D02*
X87492600Y-90766000D01*
X87492600Y-90766000D02*
X87406300Y-90533500D01*
X87406300Y-90533500D02*
X87321200Y-90209100D01*
X87321200Y-90209100D02*
X87260000Y-89815000D01*
X87260000Y-89815000D02*
X87245500Y-89598600D01*
X87245500Y-89598600D02*
X87245500Y-89373000D01*
X87245500Y-89373000D02*
X87262800Y-89140900D01*
X87262800Y-89140900D02*
X87300300Y-88905100D01*
X87300300Y-88905100D02*
X87360900Y-88668300D01*
X87360900Y-88668300D02*
X87447300Y-88433300D01*
X87447300Y-88433300D02*
X87562500Y-88202900D01*
X87562500Y-88202900D02*
X87709200Y-87979700D01*
X87709200Y-87979700D02*
X87890300Y-87766500D01*
X87890300Y-87766500D02*
X88108600Y-87566100D01*
X88108600Y-87566100D02*
X90501600Y-85658200D01*
X90501600Y-85658200D02*
X91943000Y-84522600D01*
X91943000Y-84522600D02*
X90874800Y-83470100D01*
X90874800Y-83470100D02*
X90793300Y-83537000D01*
X90793300Y-83537000D02*
X90558600Y-83702800D01*
X90558600Y-83702800D02*
X90185300Y-83915100D01*
X90185300Y-83915100D02*
X89951400Y-84022400D01*
X89951400Y-84022400D02*
X89688300Y-84121600D01*
X89688300Y-84121600D02*
X89398000Y-84206300D01*
X89398000Y-84206300D02*
X89082200Y-84269900D01*
X89082200Y-84269900D02*
X88742900Y-84305900D01*
X88742900Y-84305900D02*
X88381800Y-84307700D01*
X88381800Y-84307700D02*
X88000800Y-84268800D01*
X88000800Y-84268800D02*
X87601800Y-84182500D01*
X87601800Y-84182500D02*
X87186600Y-84042500D01*
X87186600Y-84042500D02*
X86757000Y-83842100D01*
X86757000Y-83842100D02*
X86342500Y-83587500D01*
X86342500Y-83587500D02*
X85970500Y-83292400D01*
X85970500Y-83292400D02*
X85639700Y-82961600D01*
X85639700Y-82961600D02*
X85348900Y-82600100D01*
X85348900Y-82600100D02*
X85096800Y-82212700D01*
X85096800Y-82212700D02*
X84882200Y-81804200D01*
X84882200Y-81804200D02*
X84703600Y-81379700D01*
X84703600Y-81379700D02*
X84560000Y-80943800D01*
X84560000Y-80943800D02*
X84449900Y-80501500D01*
X84449900Y-80501500D02*
X84372200Y-80057700D01*
X84372200Y-80057700D02*
X84325500Y-79617300D01*
X84325500Y-79617300D02*
X84308600Y-79185000D01*
X84308600Y-79185000D02*
X84320300Y-78765800D01*
X84320300Y-78765800D02*
X84359100Y-78364600D01*
X84359100Y-78364600D02*
X84423900Y-77986200D01*
X84423900Y-77986200D02*
X84513400Y-77635500D01*
X84513400Y-77635500D02*
X84626200Y-77305900D01*
X84626200Y-77305900D02*
X84760200Y-76988100D01*
X84760200Y-76988100D02*
X84912800Y-76683200D01*
X84912800Y-76683200D02*
X85081200Y-76391800D01*
X85081200Y-76391800D02*
X85262800Y-76115100D01*
X85262800Y-76115100D02*
X85455100Y-75853800D01*
X85455100Y-75853800D02*
X85655400Y-75608800D01*
X85655400Y-75608800D02*
X85861000Y-75381200D01*
X85861000Y-75381200D02*
X86277700Y-74981100D01*
X86277700Y-74981100D02*
X86684200Y-74660900D01*
X86684200Y-74660900D02*
X87059400Y-74427600D01*
X87059400Y-74427600D02*
X87228700Y-74345800D01*
X87228700Y-74345800D02*
X87382200Y-74288500D01*
X87382200Y-74288500D02*
X87713300Y-74205600D01*
X87713300Y-74205600D02*
X88115100Y-74146000D01*
X88115100Y-74146000D02*
X88569700Y-74124300D01*
X88569700Y-74124300D02*
X88811200Y-74132200D01*
X88811200Y-74132200D02*
X89059200Y-74155200D01*
X89059200Y-74155200D02*
X89311300Y-74194900D01*
X89311300Y-74194900D02*
X89565400Y-74253300D01*
X89565400Y-74253300D02*
X89819200Y-74332200D01*
X89819200Y-74332200D02*
X90070500Y-74433300D01*
X90070500Y-74433300D02*
X90316900Y-74558600D01*
X90316900Y-74558600D02*
X90556400Y-74709900D01*
X90556400Y-74709900D02*
X90786500Y-74889000D01*
X90786500Y-74889000D02*
X91005100Y-75097700D01*
X91005100Y-75097700D02*
X94848600Y-79299800D01*
X94848600Y-79299800D02*
X96811500Y-70672300D01*
X96811500Y-70672300D02*
X98220400Y-64540630D01*
X98220400Y-64540630D02*
X98726900Y-62377330D01*
X98726900Y-62377330D02*
X98985500Y-61332690D01*
X98985500Y-61332690D02*
X98985500Y-61332690D01*
X98985500Y-61332690D02*
X98985500Y-61332690D01*
%TD*%
M02*
