%FSLAX45Y45*%
G04 Gerber Fmt 4.5, Leading zero omitted, Abs format (unit mm)*
G04 Created by KiCad (PCBNEW (6.0.1)) date 2022-02-21 20:46:29*
%MOMM*%
%LPD*%
G01*
G04 APERTURE LIST*
%ADD10C,0.200000*%
G04 APERTURE END LIST*
D10*
X7418789Y-13964766D02*
X7418789Y-13764766D01*
X7466408Y-13764766D01*
X7494979Y-13774290D01*
X7514027Y-13793338D01*
X7523551Y-13812385D01*
X7533075Y-13850480D01*
X7533075Y-13879052D01*
X7523551Y-13917147D01*
X7514027Y-13936195D01*
X7494979Y-13955242D01*
X7466408Y-13964766D01*
X7418789Y-13964766D01*
X7618789Y-13964766D02*
X7618789Y-13831433D01*
X7618789Y-13869528D02*
X7628313Y-13850480D01*
X7637837Y-13840957D01*
X7656884Y-13831433D01*
X7675932Y-13831433D01*
X7742598Y-13964766D02*
X7742598Y-13831433D01*
X7742598Y-13764766D02*
X7733075Y-13774290D01*
X7742598Y-13783814D01*
X7752122Y-13774290D01*
X7742598Y-13764766D01*
X7742598Y-13783814D01*
X7866408Y-13964766D02*
X7847360Y-13955242D01*
X7837837Y-13936195D01*
X7837837Y-13764766D01*
X7971170Y-13964766D02*
X7952122Y-13955242D01*
X7942598Y-13936195D01*
X7942598Y-13764766D01*
X8199741Y-13964766D02*
X8199741Y-13764766D01*
X8266408Y-13907623D01*
X8333075Y-13764766D01*
X8333075Y-13964766D01*
X8514027Y-13964766D02*
X8514027Y-13860004D01*
X8504503Y-13840957D01*
X8485456Y-13831433D01*
X8447360Y-13831433D01*
X8428313Y-13840957D01*
X8514027Y-13955242D02*
X8494980Y-13964766D01*
X8447360Y-13964766D01*
X8428313Y-13955242D01*
X8418789Y-13936195D01*
X8418789Y-13917147D01*
X8428313Y-13898099D01*
X8447360Y-13888576D01*
X8494980Y-13888576D01*
X8514027Y-13879052D01*
X8609265Y-13831433D02*
X8609265Y-14031433D01*
X8609265Y-13840957D02*
X8628313Y-13831433D01*
X8666408Y-13831433D01*
X8685456Y-13840957D01*
X8694980Y-13850480D01*
X8704503Y-13869528D01*
X8704503Y-13926671D01*
X8694980Y-13945718D01*
X8685456Y-13955242D01*
X8666408Y-13964766D01*
X8628313Y-13964766D01*
X8609265Y-13955242D01*
X8790218Y-13945718D02*
X8799741Y-13955242D01*
X8790218Y-13964766D01*
X8780694Y-13955242D01*
X8790218Y-13945718D01*
X8790218Y-13964766D01*
X8790218Y-13840957D02*
X8799741Y-13850480D01*
X8790218Y-13860004D01*
X8780694Y-13850480D01*
X8790218Y-13840957D01*
X8790218Y-13860004D01*
M02*
