%TF.GenerationSoftware,KiCad,Pcbnew,(6.0.1)*%
%TF.CreationDate,2022-02-21T20:44:29-05:00*%
%TF.ProjectId,cc-online-2,63632d6f-6e6c-4696-9e65-2d322e6b6963,rev?*%
%TF.SameCoordinates,Original*%
%TF.FileFunction,Copper,L2,Bot*%
%TF.FilePolarity,Positive*%
%FSLAX46Y46*%
G04 Gerber Fmt 4.6, Leading zero omitted, Abs format (unit mm)*
G04 Created by KiCad (PCBNEW (6.0.1)) date 2022-02-21 20:44:29*
%MOMM*%
%LPD*%
G01*
G04 APERTURE LIST*
G04 Aperture macros list*
%AMHorizOval*
0 Thick line with rounded ends*
0 $1 width*
0 $2 $3 position (X,Y) of the first rounded end (center of the circle)*
0 $4 $5 position (X,Y) of the second rounded end (center of the circle)*
0 Add line between two ends*
20,1,$1,$2,$3,$4,$5,0*
0 Add two circle primitives to create the rounded ends*
1,1,$1,$2,$3*
1,1,$1,$4,$5*%
G04 Aperture macros list end*
%TA.AperFunction,ComponentPad*%
%ADD10R,1.158000X1.158000*%
%TD*%
%TA.AperFunction,ComponentPad*%
%ADD11C,1.158000*%
%TD*%
%TA.AperFunction,ComponentPad*%
%ADD12C,1.524000*%
%TD*%
%TA.AperFunction,ComponentPad*%
%ADD13R,2.500000X2.500000*%
%TD*%
%TA.AperFunction,ComponentPad*%
%ADD14R,1.150000X1.150000*%
%TD*%
%TA.AperFunction,ComponentPad*%
%ADD15C,1.150000*%
%TD*%
%TA.AperFunction,ComponentPad*%
%ADD16C,1.400000*%
%TD*%
%TA.AperFunction,ComponentPad*%
%ADD17HorizOval,1.400000X0.000000X0.000000X0.000000X0.000000X0*%
%TD*%
%TA.AperFunction,ComponentPad*%
%ADD18HorizOval,1.400000X0.000000X0.000000X0.000000X0.000000X0*%
%TD*%
%TA.AperFunction,ComponentPad*%
%ADD19HorizOval,1.400000X0.000000X0.000000X0.000000X0.000000X0*%
%TD*%
%TA.AperFunction,Conductor*%
%ADD20C,0.250000*%
%TD*%
G04 APERTURE END LIST*
D10*
%TO.P,ICM7555,1*%
%TO.N,GND*%
X130452000Y-112720000D03*
D11*
%TO.P,ICM7555,2*%
%TO.N,N/C*%
X130452000Y-115260000D03*
%TO.P,ICM7555,3*%
X130452000Y-117800000D03*
%TO.P,ICM7555,4*%
X130452000Y-120340000D03*
%TO.P,ICM7555,5*%
X138388000Y-120340000D03*
%TO.P,ICM7555,6*%
X138388000Y-117800000D03*
%TO.P,ICM7555,7*%
X138388000Y-115260000D03*
%TO.P,ICM7555,8*%
X138388000Y-112720000D03*
%TD*%
D12*
%TO.P,- +,1*%
%TO.N,GND*%
X88710000Y-80660000D03*
%TO.P,- +,2*%
%TO.N,N/C*%
X88710000Y-78120000D03*
%TD*%
D13*
%TO.P,-,1*%
%TO.N,GND*%
X81910000Y-133250000D03*
%TD*%
%TO.P,+,1*%
%TO.N,N/C*%
X76120000Y-133250000D03*
%TD*%
D14*
%TO.P,120uF,1*%
%TO.N,GND*%
X79870000Y-115980000D03*
D15*
%TO.P,120uF,2*%
%TO.N,N/C*%
X81870000Y-115980000D03*
%TD*%
D16*
%TO.P,10K\u03A9,1*%
%TO.N,N/C*%
X119300000Y-103930000D03*
D17*
%TO.P,10K\u03A9,2*%
X123015277Y-100465448D03*
%TD*%
D16*
%TO.P,220\u03A9,1*%
%TO.N,N/C*%
X118324247Y-93662681D03*
D18*
%TO.P,220\u03A9,2*%
X122215753Y-90397320D03*
%TD*%
D19*
%TO.P,220\u03A9,2*%
%TO.N,N/C*%
X116430000Y-106490000D03*
D16*
%TO.P,220\u03A9,1*%
X112654824Y-109889183D03*
%TD*%
D20*
%TO.N,*%
X139710000Y-112080000D02*
X139710000Y-116478000D01*
X139710000Y-116478000D02*
X138388000Y-117800000D01*
X139000000Y-111370000D02*
X139710000Y-112080000D01*
X137670000Y-111370000D02*
X139000000Y-111370000D01*
X130452000Y-115260000D02*
X133780000Y-115260000D01*
X133780000Y-115260000D02*
X137670000Y-111370000D01*
X123015277Y-107823277D02*
X123015277Y-100465448D01*
X130452000Y-115260000D02*
X123015277Y-107823277D01*
X89630000Y-78120000D02*
X88710000Y-78120000D01*
X105172681Y-93662681D02*
X89630000Y-78120000D01*
X118324247Y-93662681D02*
X105172681Y-93662681D01*
X112654824Y-108215176D02*
X112654824Y-109889183D01*
X118680000Y-102190000D02*
X112654824Y-108215176D01*
X120800000Y-102930000D02*
X120060000Y-102190000D01*
X120060000Y-102190000D02*
X118680000Y-102190000D01*
X130452000Y-120340000D02*
X120800000Y-110688000D01*
X120800000Y-110688000D02*
X120800000Y-102930000D01*
X122215753Y-98574247D02*
X122215753Y-90397320D01*
X121630000Y-99160000D02*
X122215753Y-98574247D01*
X121630000Y-108978000D02*
X121630000Y-99160000D01*
X130452000Y-117800000D02*
X121630000Y-108978000D01*
X94170000Y-107900000D02*
X86090000Y-115980000D01*
X108130000Y-107900000D02*
X94170000Y-107900000D01*
X120100000Y-95930000D02*
X108130000Y-107900000D01*
X86090000Y-115980000D02*
X81870000Y-115980000D01*
X120100000Y-89550000D02*
X120100000Y-95930000D01*
X121190000Y-88460000D02*
X120100000Y-89550000D01*
X123370000Y-88460000D02*
X121190000Y-88460000D01*
X124320000Y-89410000D02*
X123370000Y-88460000D01*
X124320000Y-99160725D02*
X124320000Y-89410000D01*
X123015277Y-100465448D02*
X124320000Y-99160725D01*
X129510000Y-121850000D02*
X131798000Y-121850000D01*
X116430000Y-108770000D02*
X129510000Y-121850000D01*
X131798000Y-121850000D02*
X138388000Y-115260000D01*
X116430000Y-106490000D02*
X116430000Y-108770000D01*
X118990000Y-103930000D02*
X119300000Y-103930000D01*
X116430000Y-106490000D02*
X118990000Y-103930000D01*
X99480817Y-109889183D02*
X112654824Y-109889183D01*
X76120000Y-133250000D02*
X99480817Y-109889183D01*
X138072000Y-112720000D02*
X138388000Y-112720000D01*
X130452000Y-120340000D02*
X138072000Y-112720000D01*
%TD*%
%TA.AperFunction,Conductor*%
%TO.N,GND*%
G36*
X114229116Y-60031612D02*
G01*
X114248283Y-60033943D01*
X114351594Y-60054639D01*
X114373124Y-60058952D01*
X114389394Y-60063361D01*
X114444666Y-60082395D01*
X114456555Y-60087179D01*
X114530941Y-60121601D01*
X114542956Y-60127970D01*
X114623821Y-60176604D01*
X114635515Y-60184564D01*
X114722459Y-60251187D01*
X114733315Y-60260531D01*
X114826018Y-60349988D01*
X114835589Y-60360318D01*
X114932849Y-60477826D01*
X114940964Y-60488788D01*
X115040637Y-60639899D01*
X115047149Y-60650959D01*
X115063689Y-60682637D01*
X115146601Y-60841437D01*
X115151562Y-60852133D01*
X115247304Y-61086878D01*
X115250960Y-61097077D01*
X115304473Y-61269389D01*
X115341828Y-61389674D01*
X115343452Y-61395377D01*
X115435269Y-61749045D01*
X115703150Y-62780895D01*
X115703516Y-62782340D01*
X115824925Y-63273820D01*
X116006357Y-64008283D01*
X116006505Y-64008883D01*
X116006768Y-64009971D01*
X116150697Y-64617546D01*
X116284545Y-65182569D01*
X116286993Y-65196207D01*
X116291665Y-65234131D01*
X116295219Y-65242374D01*
X116316429Y-65291571D01*
X116317975Y-65295322D01*
X116337588Y-65345170D01*
X116340875Y-65353524D01*
X116345978Y-65360108D01*
X116349275Y-65367756D01*
X116368068Y-65390455D01*
X116389152Y-65415923D01*
X116391687Y-65419087D01*
X116424513Y-65461441D01*
X116424516Y-65461444D01*
X116430015Y-65468539D01*
X116436760Y-65473425D01*
X116442072Y-65479842D01*
X116493876Y-65514886D01*
X116497174Y-65517195D01*
X116547854Y-65553912D01*
X116555702Y-65556710D01*
X116562598Y-65561375D01*
X116571145Y-65564116D01*
X116571146Y-65564116D01*
X116622144Y-65580468D01*
X116625987Y-65581769D01*
X116676457Y-65599763D01*
X116676461Y-65599764D01*
X116684918Y-65602779D01*
X116693230Y-65603262D01*
X116701165Y-65605806D01*
X116710140Y-65606037D01*
X116710143Y-65606038D01*
X116763703Y-65607419D01*
X116767758Y-65607589D01*
X116821227Y-65610694D01*
X116821230Y-65610694D01*
X116830188Y-65611214D01*
X116838931Y-65609199D01*
X116838934Y-65609199D01*
X116871256Y-65601750D01*
X116883383Y-65599574D01*
X116993975Y-65585265D01*
X117003389Y-65584404D01*
X117131020Y-65577553D01*
X117141561Y-65577429D01*
X117221529Y-65579833D01*
X117310663Y-65582514D01*
X117318381Y-65582984D01*
X117372054Y-65587917D01*
X117418360Y-65578875D01*
X117428385Y-65577334D01*
X117440376Y-65575983D01*
X117466356Y-65573057D01*
X117466359Y-65573056D01*
X117475273Y-65572052D01*
X117483546Y-65568587D01*
X117486148Y-65567910D01*
X117503510Y-65562639D01*
X117506063Y-65561750D01*
X117514872Y-65560030D01*
X117556776Y-65538357D01*
X117565976Y-65534060D01*
X117569939Y-65532400D01*
X117609488Y-65515834D01*
X117654496Y-65479351D01*
X117659424Y-65475554D01*
X120153536Y-63650223D01*
X120177552Y-63636420D01*
X120220298Y-63617767D01*
X120226742Y-63615165D01*
X120503098Y-63512380D01*
X120510683Y-63509830D01*
X120671884Y-63461275D01*
X120679509Y-63459236D01*
X120848219Y-63419750D01*
X120858778Y-63417750D01*
X121012309Y-63395395D01*
X121027521Y-63394114D01*
X121164676Y-63390910D01*
X121178916Y-63391383D01*
X121340268Y-63405908D01*
X121348660Y-63406949D01*
X121429575Y-63419750D01*
X121546266Y-63438211D01*
X121554959Y-63439903D01*
X121647322Y-63461275D01*
X121764627Y-63488419D01*
X121774081Y-63490997D01*
X121986457Y-63557901D01*
X121996938Y-63561721D01*
X122203216Y-63647433D01*
X122214902Y-63653009D01*
X122407105Y-63757202D01*
X122419934Y-63765188D01*
X122591689Y-63886976D01*
X122605246Y-63898086D01*
X122758142Y-64042274D01*
X122763060Y-64046912D01*
X122772745Y-64057126D01*
X123026940Y-64357136D01*
X123039826Y-64372345D01*
X123047885Y-64382945D01*
X123166134Y-64556839D01*
X123175824Y-64573775D01*
X123213105Y-64652520D01*
X123218156Y-64664831D01*
X123240710Y-64729315D01*
X123241396Y-64731337D01*
X123329194Y-64997771D01*
X123334730Y-65014570D01*
X123336424Y-65020142D01*
X123339078Y-65029656D01*
X123411563Y-65289501D01*
X123413381Y-65296869D01*
X123416694Y-65312278D01*
X123416697Y-65312288D01*
X123417718Y-65317037D01*
X123419457Y-65321571D01*
X123419458Y-65321574D01*
X123421192Y-65326094D01*
X123424914Y-65337361D01*
X123426683Y-65343702D01*
X123428493Y-65347819D01*
X123428494Y-65347821D01*
X123435339Y-65363389D01*
X123437641Y-65368983D01*
X123483557Y-65488697D01*
X123487540Y-65500911D01*
X123489387Y-65507740D01*
X123491368Y-65512191D01*
X123491368Y-65512192D01*
X123498714Y-65528700D01*
X123501241Y-65534805D01*
X123506748Y-65549164D01*
X123506752Y-65549172D01*
X123508353Y-65553347D01*
X123512079Y-65560030D01*
X123512185Y-65560221D01*
X123517243Y-65570339D01*
X123616692Y-65793827D01*
X123619558Y-65800267D01*
X123619842Y-65800909D01*
X123694278Y-65970937D01*
X123721946Y-66034137D01*
X123725554Y-66043346D01*
X123754055Y-66125463D01*
X123759770Y-66149066D01*
X123771781Y-66233684D01*
X123772518Y-66240037D01*
X123794858Y-66486940D01*
X123795371Y-66498423D01*
X123795029Y-66832025D01*
X123794532Y-66843074D01*
X123779203Y-67015176D01*
X123778093Y-67024060D01*
X123747670Y-67212697D01*
X123745811Y-67221983D01*
X123742150Y-67237260D01*
X123741757Y-67242114D01*
X123740980Y-67251708D01*
X123739784Y-67261597D01*
X123737973Y-67272828D01*
X123737894Y-67277314D01*
X123737681Y-67289347D01*
X123737290Y-67297287D01*
X123733474Y-67344424D01*
X123732619Y-67352075D01*
X123729743Y-67372208D01*
X123729804Y-67377077D01*
X123729804Y-67377079D01*
X123729868Y-67382173D01*
X123729467Y-67393919D01*
X123728913Y-67400766D01*
X123729188Y-67405234D01*
X123729188Y-67405237D01*
X123730218Y-67421961D01*
X123730446Y-67428122D01*
X123732662Y-67604614D01*
X123732481Y-67613129D01*
X123731479Y-67631284D01*
X123732676Y-67643293D01*
X123733286Y-67654195D01*
X123733398Y-67663156D01*
X123736338Y-67681997D01*
X123737220Y-67688903D01*
X123868238Y-69003862D01*
X123868798Y-69015280D01*
X123867577Y-69023728D01*
X123868838Y-69032616D01*
X123876079Y-69083658D01*
X123876707Y-69088862D01*
X123878919Y-69111063D01*
X123879993Y-69115422D01*
X123880194Y-69116591D01*
X123882281Y-69127372D01*
X123888017Y-69167801D01*
X123891723Y-69175980D01*
X123893918Y-69180825D01*
X123901490Y-69202682D01*
X123902765Y-69207857D01*
X123902766Y-69207860D01*
X123904913Y-69216574D01*
X123909419Y-69224335D01*
X123925416Y-69251887D01*
X123931219Y-69263151D01*
X123934160Y-69269641D01*
X123936821Y-69273704D01*
X123936824Y-69273709D01*
X123946070Y-69287824D01*
X123949631Y-69293593D01*
X123977978Y-69342415D01*
X123984484Y-69348603D01*
X123989227Y-69354610D01*
X123995733Y-69363645D01*
X124089859Y-69507346D01*
X124095677Y-69517174D01*
X124180448Y-69676475D01*
X124187619Y-69692581D01*
X124243087Y-69845055D01*
X124243317Y-69845688D01*
X124248604Y-69864773D01*
X124282356Y-70038832D01*
X124283629Y-70046735D01*
X124308268Y-70238184D01*
X124308882Y-70244023D01*
X124323440Y-70422487D01*
X124323769Y-70428570D01*
X124323538Y-70433159D01*
X124324044Y-70437998D01*
X124326902Y-70465338D01*
X124327168Y-70468194D01*
X124329547Y-70497358D01*
X124330543Y-70501736D01*
X124330596Y-70502080D01*
X124331376Y-70508127D01*
X124343508Y-70624175D01*
X124344139Y-70633665D01*
X124344587Y-70649293D01*
X124345472Y-70654070D01*
X124347233Y-70663578D01*
X124348656Y-70673416D01*
X124349846Y-70684800D01*
X124350940Y-70689148D01*
X124350942Y-70689161D01*
X124353868Y-70700792D01*
X124355567Y-70708579D01*
X124369836Y-70785625D01*
X124394550Y-70919068D01*
X124396061Y-70929776D01*
X124397255Y-70942013D01*
X124398467Y-70946724D01*
X124401693Y-70959267D01*
X124403555Y-70967696D01*
X124406237Y-70982175D01*
X124407669Y-70986420D01*
X124410430Y-70994607D01*
X124413067Y-71003491D01*
X124459731Y-71184916D01*
X124461314Y-71191882D01*
X124474220Y-71257207D01*
X124476598Y-71279984D01*
X124479110Y-71472496D01*
X124479099Y-71476516D01*
X124475329Y-71676365D01*
X124474992Y-71683494D01*
X124463545Y-71834803D01*
X124461580Y-71849385D01*
X124431096Y-72005907D01*
X124429591Y-72012646D01*
X124380041Y-72209019D01*
X124376464Y-72223194D01*
X124375533Y-72226672D01*
X124311643Y-72452269D01*
X124310644Y-72455797D01*
X124306025Y-72469185D01*
X124291851Y-72503821D01*
X124290919Y-72512752D01*
X124290919Y-72512753D01*
X124285281Y-72566803D01*
X124284838Y-72570515D01*
X124276395Y-72633271D01*
X124277552Y-72640885D01*
X124276752Y-72648550D01*
X124288127Y-72710874D01*
X124288734Y-72714500D01*
X124298249Y-72777134D01*
X124301497Y-72784120D01*
X124302881Y-72791700D01*
X124329339Y-72844431D01*
X124331257Y-72848255D01*
X124332891Y-72851635D01*
X124359603Y-72909082D01*
X124365520Y-72915832D01*
X124386871Y-72940189D01*
X124394707Y-72950088D01*
X124630212Y-73280323D01*
X124631787Y-73282583D01*
X124753266Y-73461148D01*
X124860816Y-73619238D01*
X124862256Y-73621403D01*
X124881033Y-73650267D01*
X124884284Y-73653890D01*
X124884693Y-73654424D01*
X124885010Y-73654800D01*
X124886099Y-73656402D01*
X124889121Y-73659714D01*
X124911799Y-73684570D01*
X124912509Y-73685355D01*
X124974335Y-73754272D01*
X125029475Y-73815736D01*
X125041136Y-73828735D01*
X125044402Y-73832524D01*
X125173451Y-73988428D01*
X125230507Y-74057358D01*
X125239812Y-74070159D01*
X125397324Y-74318286D01*
X125420295Y-74354472D01*
X125422348Y-74357821D01*
X125528274Y-74536783D01*
X125535009Y-74549845D01*
X125590114Y-74673996D01*
X125594712Y-74685963D01*
X125596932Y-74692755D01*
X125599138Y-74697095D01*
X125599141Y-74697101D01*
X125607300Y-74713148D01*
X125610142Y-74719121D01*
X125618180Y-74737229D01*
X125620558Y-74741023D01*
X125620559Y-74741024D01*
X125622396Y-74743954D01*
X125627956Y-74753776D01*
X125687321Y-74870537D01*
X125690543Y-74877374D01*
X125698789Y-74896333D01*
X125703954Y-74904485D01*
X125709833Y-74914812D01*
X125712801Y-74920650D01*
X125724601Y-74937440D01*
X125725208Y-74938303D01*
X125728549Y-74943307D01*
X125768929Y-75007048D01*
X125770314Y-75009580D01*
X125771163Y-75012387D01*
X125810264Y-75072312D01*
X125811143Y-75073679D01*
X125826791Y-75098379D01*
X125828455Y-75100327D01*
X125829388Y-75101670D01*
X125829596Y-75101940D01*
X125832260Y-75106024D01*
X125850301Y-75126079D01*
X125852229Y-75128222D01*
X125854355Y-75130648D01*
X125891540Y-75174178D01*
X125891543Y-75174181D01*
X125897371Y-75181003D01*
X125901905Y-75183970D01*
X125906196Y-75188214D01*
X126416212Y-75755160D01*
X126418215Y-75757533D01*
X126419824Y-75759926D01*
X126443787Y-75785829D01*
X126444781Y-75786918D01*
X126466324Y-75810866D01*
X126468531Y-75812709D01*
X126470771Y-75814996D01*
X126737535Y-76103352D01*
X126929579Y-76310941D01*
X126935312Y-76317587D01*
X128068246Y-77727747D01*
X128079376Y-77741601D01*
X128085477Y-77749864D01*
X128486094Y-78341463D01*
X128493599Y-78352546D01*
X128494614Y-78354070D01*
X128815717Y-78843523D01*
X128847412Y-78891836D01*
X128849232Y-78894693D01*
X129140954Y-79366704D01*
X129144756Y-79373297D01*
X129292310Y-79648064D01*
X129397784Y-79844472D01*
X129400178Y-79849162D01*
X129486580Y-80027559D01*
X129662997Y-80391813D01*
X129676426Y-80419541D01*
X129678431Y-80423888D01*
X129780566Y-80657035D01*
X129918444Y-80971773D01*
X129921409Y-80979172D01*
X130071741Y-81391491D01*
X130074466Y-81399863D01*
X130107158Y-81513667D01*
X130169531Y-81730793D01*
X130171409Y-81737332D01*
X130172492Y-81741352D01*
X130264300Y-82106837D01*
X130266113Y-82115270D01*
X130331554Y-82480294D01*
X130333191Y-82493279D01*
X130361261Y-82874587D01*
X130361596Y-82882749D01*
X130364816Y-83255559D01*
X130364768Y-83260300D01*
X130355435Y-83582122D01*
X130354606Y-83593352D01*
X130319353Y-83889715D01*
X130316907Y-83903600D01*
X130249175Y-84192426D01*
X130239212Y-84234909D01*
X130235471Y-84247750D01*
X130183945Y-84395025D01*
X130145288Y-84505519D01*
X130119988Y-84577832D01*
X130115341Y-84589280D01*
X130009687Y-84816778D01*
X130001928Y-84833484D01*
X129996489Y-84843896D01*
X129869043Y-85062388D01*
X129865665Y-85067853D01*
X129834266Y-85115877D01*
X129831660Y-85124465D01*
X129831660Y-85124466D01*
X129821544Y-85157809D01*
X129817709Y-85168643D01*
X129804601Y-85200915D01*
X129804600Y-85200919D01*
X129801224Y-85209231D01*
X129800316Y-85218159D01*
X129800315Y-85218164D01*
X129800080Y-85220473D01*
X129795301Y-85244301D01*
X129794625Y-85246531D01*
X129792018Y-85255125D01*
X129791928Y-85264096D01*
X129791927Y-85264099D01*
X129791576Y-85298950D01*
X129790936Y-85310423D01*
X129786506Y-85353999D01*
X129796192Y-85406282D01*
X129797707Y-85414463D01*
X129798504Y-85419285D01*
X129849063Y-85767033D01*
X129849572Y-85770971D01*
X129856785Y-85834610D01*
X129871352Y-85869320D01*
X129876020Y-85882436D01*
X129886655Y-85918520D01*
X129909559Y-85954166D01*
X129923807Y-85976341D01*
X129925094Y-85978387D01*
X130243038Y-86494866D01*
X130253402Y-86511702D01*
X130254232Y-86513071D01*
X130397343Y-86752301D01*
X130400717Y-86758307D01*
X130497312Y-86941863D01*
X130500192Y-86947698D01*
X130566225Y-87090675D01*
X130572591Y-87107536D01*
X130623211Y-87277608D01*
X130625198Y-87285132D01*
X130665125Y-87457733D01*
X130667254Y-87469420D01*
X130680175Y-87565983D01*
X130688501Y-87628212D01*
X130689612Y-87644282D01*
X130689730Y-87667610D01*
X130690390Y-87798407D01*
X130690099Y-87807626D01*
X130679611Y-87961069D01*
X130679396Y-87964215D01*
X130678717Y-87971242D01*
X130662019Y-88104826D01*
X130658708Y-88131310D01*
X130657463Y-88139218D01*
X130653817Y-88158373D01*
X130653654Y-88163231D01*
X130653454Y-88169163D01*
X130652552Y-88180552D01*
X130652153Y-88183741D01*
X130652153Y-88183749D01*
X130651598Y-88188186D01*
X130651678Y-88192661D01*
X130651962Y-88208555D01*
X130651911Y-88215040D01*
X130622290Y-89095966D01*
X130622287Y-89096043D01*
X130621615Y-89105469D01*
X130616801Y-89149581D01*
X130607916Y-89231005D01*
X130605138Y-89246917D01*
X130590386Y-89307999D01*
X130580801Y-89347683D01*
X130574673Y-89366461D01*
X130521950Y-89493310D01*
X130519384Y-89499043D01*
X130517034Y-89503100D01*
X130505378Y-89533094D01*
X130504286Y-89535808D01*
X130503444Y-89537835D01*
X130493104Y-89562714D01*
X130491992Y-89567038D01*
X130491751Y-89567758D01*
X130489704Y-89573424D01*
X130483987Y-89588135D01*
X130473873Y-89608497D01*
X130470438Y-89614083D01*
X130470437Y-89614086D01*
X130465734Y-89621733D01*
X130455121Y-89660549D01*
X130452558Y-89668313D01*
X130451507Y-89671717D01*
X130449885Y-89675889D01*
X130448873Y-89680242D01*
X130448870Y-89680252D01*
X130444517Y-89698980D01*
X130443335Y-89703658D01*
X130436247Y-89729580D01*
X130435702Y-89734408D01*
X130434782Y-89739200D01*
X130434735Y-89739191D01*
X130433498Y-89746380D01*
X130425280Y-89781732D01*
X130425783Y-89790690D01*
X130425840Y-89791701D01*
X130423877Y-89821480D01*
X130421193Y-89829316D01*
X130420785Y-89838278D01*
X130418822Y-89881406D01*
X130418156Y-89889813D01*
X130417018Y-89899888D01*
X130417017Y-89899904D01*
X130416515Y-89904354D01*
X130416649Y-89908840D01*
X130416873Y-89916361D01*
X130416799Y-89925846D01*
X130416109Y-89941007D01*
X130417628Y-89954889D01*
X130418318Y-89964820D01*
X130419754Y-90012971D01*
X130422529Y-90021508D01*
X130423284Y-90025852D01*
X130427401Y-90044958D01*
X130435002Y-90113686D01*
X130435081Y-90114410D01*
X130435083Y-90114416D01*
X130435430Y-90117558D01*
X130436704Y-90122258D01*
X130443862Y-90148676D01*
X130444293Y-90150308D01*
X130452260Y-90181350D01*
X130462093Y-90219665D01*
X130463586Y-90222180D01*
X130464521Y-90224919D01*
X130466779Y-90233251D01*
X130468646Y-90241136D01*
X130471520Y-90255292D01*
X130471523Y-90255301D01*
X130472491Y-90260070D01*
X130474184Y-90264639D01*
X130476302Y-90270355D01*
X130479767Y-90281183D01*
X130481821Y-90288765D01*
X130483597Y-90292886D01*
X130483597Y-90292887D01*
X130489800Y-90307283D01*
X130492232Y-90313356D01*
X130552260Y-90475381D01*
X130555361Y-90484901D01*
X130574696Y-90553413D01*
X130587601Y-90599143D01*
X130592330Y-90632018D01*
X130600117Y-91360816D01*
X130600017Y-91366714D01*
X130599472Y-91371178D01*
X130599632Y-91376035D01*
X130599632Y-91376038D01*
X130600544Y-91403702D01*
X130600605Y-91406507D01*
X130600766Y-91421539D01*
X130600919Y-91435903D01*
X130601600Y-91440322D01*
X130601953Y-91446448D01*
X130625752Y-92168557D01*
X130626401Y-92188255D01*
X130626440Y-92194639D01*
X130625976Y-92199357D01*
X130626251Y-92204221D01*
X130627787Y-92231396D01*
X130627920Y-92234355D01*
X130628877Y-92263390D01*
X130629659Y-92267810D01*
X130629755Y-92268724D01*
X130630235Y-92274691D01*
X130649927Y-92623049D01*
X130670219Y-92982027D01*
X130670419Y-92988662D01*
X130670420Y-92988924D01*
X130670063Y-92993776D01*
X130670457Y-92998625D01*
X130672637Y-93025478D01*
X130672849Y-93028561D01*
X130674468Y-93057190D01*
X130675350Y-93061571D01*
X130675573Y-93063308D01*
X130676183Y-93069136D01*
X130730912Y-93742987D01*
X130731270Y-93749443D01*
X130731307Y-93750704D01*
X130731077Y-93755552D01*
X130731595Y-93760378D01*
X130734425Y-93786746D01*
X130734730Y-93789979D01*
X130737020Y-93818181D01*
X130738013Y-93822555D01*
X130738425Y-93825238D01*
X130739163Y-93830900D01*
X130808029Y-94472638D01*
X130808546Y-94478945D01*
X130808664Y-94481029D01*
X130808564Y-94485899D01*
X130809215Y-94490731D01*
X130809215Y-94490732D01*
X130812702Y-94516621D01*
X130813111Y-94519995D01*
X130816092Y-94547772D01*
X130817197Y-94552117D01*
X130817847Y-94555728D01*
X130818710Y-94561218D01*
X130823280Y-94595141D01*
X130883240Y-95040226D01*
X130900999Y-95172056D01*
X130901672Y-95178178D01*
X130901941Y-95181335D01*
X130901979Y-95186207D01*
X130902765Y-95191011D01*
X130902766Y-95191019D01*
X130906919Y-95216390D01*
X130907446Y-95219917D01*
X130911118Y-95247172D01*
X130912342Y-95251491D01*
X130913252Y-95255867D01*
X130913080Y-95255903D01*
X130914267Y-95261278D01*
X131009396Y-95842416D01*
X131010229Y-95848399D01*
X131010673Y-95852269D01*
X131010854Y-95857138D01*
X131011782Y-95861923D01*
X131016622Y-95886886D01*
X131017271Y-95890517D01*
X131021665Y-95917362D01*
X131023011Y-95921644D01*
X131024047Y-95926005D01*
X131023888Y-95926043D01*
X131025280Y-95931545D01*
X131132533Y-96484730D01*
X131133281Y-96490589D01*
X131133519Y-96490554D01*
X131134222Y-96495378D01*
X131134550Y-96500228D01*
X131141146Y-96529458D01*
X131141912Y-96533108D01*
X131147030Y-96559502D01*
X131148498Y-96563735D01*
X131149663Y-96568070D01*
X131149529Y-96568106D01*
X131151152Y-96573789D01*
X131243477Y-96982884D01*
X131270106Y-97100877D01*
X131271084Y-97106925D01*
X131271280Y-97106890D01*
X131272135Y-97111685D01*
X131272616Y-97116524D01*
X131280038Y-97145164D01*
X131280966Y-97148997D01*
X131286793Y-97174816D01*
X131288391Y-97179008D01*
X131289686Y-97183298D01*
X131289578Y-97183330D01*
X131291444Y-97189179D01*
X131306195Y-97246100D01*
X131417340Y-97674995D01*
X131421513Y-97691099D01*
X131422700Y-97697202D01*
X131422885Y-97697163D01*
X131423892Y-97701923D01*
X131424529Y-97706755D01*
X131425903Y-97711434D01*
X131432815Y-97734974D01*
X131433889Y-97738862D01*
X131439366Y-97759996D01*
X131439369Y-97760005D01*
X131440494Y-97764346D01*
X131442222Y-97768482D01*
X131443654Y-97772735D01*
X131443556Y-97772768D01*
X131445638Y-97778640D01*
X131507593Y-97989622D01*
X131586032Y-98256742D01*
X131587465Y-98263010D01*
X131587623Y-98262971D01*
X131588787Y-98267698D01*
X131589583Y-98272500D01*
X131591108Y-98277120D01*
X131591109Y-98277126D01*
X131598697Y-98300122D01*
X131599938Y-98304103D01*
X131605990Y-98324711D01*
X131607258Y-98329028D01*
X131609123Y-98333118D01*
X131610684Y-98337305D01*
X131610607Y-98337334D01*
X131612953Y-98343323D01*
X131760881Y-98791628D01*
X131763252Y-98798815D01*
X131764915Y-98805111D01*
X131765061Y-98805070D01*
X131766383Y-98809753D01*
X131767339Y-98814524D01*
X131769018Y-98819091D01*
X131769018Y-98819092D01*
X131777329Y-98841703D01*
X131778717Y-98845684D01*
X131786815Y-98870224D01*
X131788810Y-98874240D01*
X131790512Y-98878384D01*
X131790446Y-98878411D01*
X131793023Y-98884395D01*
X131952583Y-99318464D01*
X131954477Y-99324764D01*
X131954612Y-99324721D01*
X131956094Y-99329363D01*
X131957212Y-99334098D01*
X131959046Y-99338607D01*
X131968056Y-99360765D01*
X131969600Y-99364754D01*
X131978479Y-99388909D01*
X131980607Y-99392856D01*
X131982450Y-99396945D01*
X131982393Y-99396971D01*
X131985204Y-99402933D01*
X132088270Y-99656388D01*
X132153385Y-99816516D01*
X132155491Y-99822746D01*
X132155625Y-99822698D01*
X132157265Y-99827290D01*
X132158543Y-99831988D01*
X132170305Y-99858314D01*
X132171957Y-99862188D01*
X132179970Y-99881895D01*
X132179975Y-99881904D01*
X132181660Y-99886049D01*
X132183919Y-99889917D01*
X132185899Y-99893941D01*
X132185843Y-99893969D01*
X132188861Y-99899847D01*
X132365034Y-100294167D01*
X132367346Y-100300310D01*
X132367481Y-100300257D01*
X132369268Y-100304772D01*
X132370706Y-100309429D01*
X132372841Y-100313805D01*
X132372842Y-100313806D01*
X132383361Y-100335360D01*
X132385162Y-100339215D01*
X132395666Y-100362727D01*
X132398056Y-100366519D01*
X132400173Y-100370476D01*
X132400116Y-100370506D01*
X132403309Y-100376238D01*
X132586916Y-100752471D01*
X132589425Y-100758509D01*
X132589558Y-100758451D01*
X132591504Y-100762921D01*
X132593094Y-100767514D01*
X132595371Y-100771806D01*
X132595375Y-100771815D01*
X132606628Y-100793026D01*
X132608557Y-100796815D01*
X132619861Y-100819978D01*
X132622373Y-100823679D01*
X132624628Y-100827572D01*
X132624571Y-100827605D01*
X132627956Y-100833227D01*
X132793227Y-101144752D01*
X132818463Y-101192321D01*
X132821086Y-101198089D01*
X132821242Y-101198015D01*
X132823333Y-101202419D01*
X132825073Y-101206960D01*
X132839631Y-101232361D01*
X132841587Y-101235906D01*
X132853837Y-101258999D01*
X132856476Y-101262618D01*
X132858857Y-101266425D01*
X132858781Y-101266473D01*
X132862233Y-101271799D01*
X132930465Y-101390854D01*
X133061249Y-101619055D01*
X133067315Y-101631093D01*
X133069491Y-101636055D01*
X133072110Y-101640162D01*
X133072113Y-101640168D01*
X133082723Y-101656808D01*
X133085799Y-101661892D01*
X133096490Y-101680545D01*
X133099250Y-101684082D01*
X133099251Y-101684083D01*
X133100297Y-101685423D01*
X133107204Y-101695198D01*
X133564904Y-102412988D01*
X133570927Y-102423519D01*
X133572761Y-102427118D01*
X133572764Y-102427123D01*
X133574975Y-102431462D01*
X133577829Y-102435412D01*
X133577830Y-102435413D01*
X133587359Y-102448599D01*
X133591474Y-102454657D01*
X133601182Y-102469881D01*
X133604106Y-102473284D01*
X133604110Y-102473289D01*
X133607511Y-102477247D01*
X133614073Y-102485567D01*
X134096883Y-103153694D01*
X134103962Y-103164641D01*
X134107250Y-103170355D01*
X134110301Y-103174153D01*
X134121921Y-103188621D01*
X134125810Y-103193724D01*
X134135095Y-103206573D01*
X134137720Y-103210205D01*
X134140830Y-103213425D01*
X134142842Y-103215508D01*
X134150451Y-103224142D01*
X134650512Y-103846748D01*
X134656151Y-103854640D01*
X134658113Y-103857269D01*
X134660715Y-103861382D01*
X134663918Y-103865046D01*
X134663920Y-103865048D01*
X134678046Y-103881204D01*
X134681425Y-103885236D01*
X134695975Y-103903351D01*
X134699242Y-103906406D01*
X134699315Y-103906485D01*
X134708008Y-103915473D01*
X135185099Y-104461134D01*
X135220231Y-104501315D01*
X135223947Y-104506134D01*
X135224107Y-104506007D01*
X135227133Y-104509806D01*
X135229866Y-104513841D01*
X135233185Y-104517405D01*
X135250064Y-104535530D01*
X135252705Y-104538456D01*
X135270175Y-104558437D01*
X135273578Y-104561363D01*
X135276755Y-104564513D01*
X135276671Y-104564598D01*
X135281056Y-104568810D01*
X135803420Y-105129735D01*
X135807806Y-105134703D01*
X135807926Y-105134846D01*
X135810757Y-105138813D01*
X135814162Y-105142294D01*
X135832997Y-105161551D01*
X135835131Y-105163787D01*
X135854697Y-105184798D01*
X135858184Y-105187611D01*
X135859411Y-105188754D01*
X135863609Y-105192851D01*
X136979434Y-106333691D01*
X136979550Y-106333820D01*
X136979669Y-106333986D01*
X137007474Y-106362360D01*
X137032536Y-106387984D01*
X137032694Y-106388105D01*
X137032822Y-106388227D01*
X137060143Y-106416107D01*
X137590393Y-106957210D01*
X137591609Y-106958469D01*
X137985891Y-107372953D01*
X138164306Y-107560510D01*
X138166558Y-107562941D01*
X138725279Y-108182115D01*
X138728308Y-108185599D01*
X139269604Y-108831547D01*
X139273197Y-108836039D01*
X139754152Y-109466556D01*
X139793650Y-109518337D01*
X139797614Y-109523836D01*
X140296438Y-110256370D01*
X140299461Y-110261026D01*
X140534935Y-110641866D01*
X140536943Y-110645229D01*
X140676652Y-110887745D01*
X140767393Y-111045259D01*
X140769331Y-111048750D01*
X140992106Y-111465447D01*
X140993994Y-111469122D01*
X141208418Y-111903913D01*
X141210174Y-111907625D01*
X141416003Y-112361718D01*
X141417653Y-112365522D01*
X141614267Y-112840240D01*
X141615794Y-112844107D01*
X141802599Y-113340907D01*
X141803968Y-113344733D01*
X141980626Y-113864870D01*
X141981861Y-113868709D01*
X142147614Y-114413394D01*
X142148704Y-114417187D01*
X142295538Y-114960214D01*
X142302997Y-114987801D01*
X142303933Y-114991485D01*
X142383677Y-115326498D01*
X142446248Y-115589366D01*
X142447053Y-115592982D01*
X142576819Y-116219360D01*
X142577501Y-116222908D01*
X142693898Y-116878912D01*
X142694451Y-116882298D01*
X142787881Y-117507946D01*
X142797033Y-117569233D01*
X142797477Y-117572498D01*
X142880392Y-118249256D01*
X142885602Y-118291777D01*
X142885948Y-118294933D01*
X142890908Y-118346079D01*
X142958937Y-119047460D01*
X142959194Y-119050489D01*
X143014882Y-119816546D01*
X143016406Y-119837517D01*
X143016582Y-119840390D01*
X143030379Y-120118664D01*
X143057379Y-120663209D01*
X143057486Y-120665959D01*
X143081312Y-121525799D01*
X143081357Y-121528417D01*
X143087597Y-122430393D01*
X143087600Y-122431265D01*
X143087600Y-135342244D01*
X143087598Y-135342904D01*
X143085676Y-135709968D01*
X143085543Y-135715140D01*
X143083088Y-135767937D01*
X143078669Y-135862989D01*
X143055525Y-135930107D01*
X142999768Y-135974058D01*
X142953597Y-135983135D01*
X142686674Y-135984813D01*
X142673153Y-135984898D01*
X142672361Y-135984900D01*
X72484061Y-135984900D01*
X72479386Y-135984813D01*
X72396434Y-135981733D01*
X72383814Y-135980627D01*
X72323217Y-135972230D01*
X72308414Y-135969266D01*
X72263602Y-135957461D01*
X72202824Y-135920766D01*
X72171534Y-135857036D01*
X72169700Y-135835618D01*
X72169700Y-134548134D01*
X74361500Y-134548134D01*
X74368255Y-134610316D01*
X74419385Y-134746705D01*
X74506739Y-134863261D01*
X74623295Y-134950615D01*
X74759684Y-135001745D01*
X74821866Y-135008500D01*
X77418134Y-135008500D01*
X77480316Y-135001745D01*
X77616705Y-134950615D01*
X77733261Y-134863261D01*
X77820615Y-134746705D01*
X77871745Y-134610316D01*
X77878500Y-134548134D01*
X77878500Y-134544669D01*
X80152001Y-134544669D01*
X80152371Y-134551490D01*
X80157895Y-134602352D01*
X80161521Y-134617604D01*
X80206676Y-134738054D01*
X80215214Y-134753649D01*
X80291715Y-134855724D01*
X80304276Y-134868285D01*
X80406351Y-134944786D01*
X80421946Y-134953324D01*
X80542394Y-134998478D01*
X80557649Y-135002105D01*
X80608514Y-135007631D01*
X80615328Y-135008000D01*
X81637885Y-135008000D01*
X81653124Y-135003525D01*
X81654329Y-135002135D01*
X81656000Y-134994452D01*
X81656000Y-134989884D01*
X82164000Y-134989884D01*
X82168475Y-135005123D01*
X82169865Y-135006328D01*
X82177548Y-135007999D01*
X83204669Y-135007999D01*
X83211490Y-135007629D01*
X83262352Y-135002105D01*
X83277604Y-134998479D01*
X83398054Y-134953324D01*
X83413649Y-134944786D01*
X83515724Y-134868285D01*
X83528285Y-134855724D01*
X83604786Y-134753649D01*
X83613324Y-134738054D01*
X83658478Y-134617606D01*
X83662105Y-134602351D01*
X83667631Y-134551486D01*
X83668000Y-134544672D01*
X83668000Y-133522115D01*
X83663525Y-133506876D01*
X83662135Y-133505671D01*
X83654452Y-133504000D01*
X82182115Y-133504000D01*
X82166876Y-133508475D01*
X82165671Y-133509865D01*
X82164000Y-133517548D01*
X82164000Y-134989884D01*
X81656000Y-134989884D01*
X81656000Y-133522115D01*
X81651525Y-133506876D01*
X81650135Y-133505671D01*
X81642452Y-133504000D01*
X80170116Y-133504000D01*
X80154877Y-133508475D01*
X80153672Y-133509865D01*
X80152001Y-133517548D01*
X80152001Y-134544669D01*
X77878500Y-134544669D01*
X77878500Y-132977885D01*
X80152000Y-132977885D01*
X80156475Y-132993124D01*
X80157865Y-132994329D01*
X80165548Y-132996000D01*
X81637885Y-132996000D01*
X81653124Y-132991525D01*
X81654329Y-132990135D01*
X81656000Y-132982452D01*
X81656000Y-132977885D01*
X82164000Y-132977885D01*
X82168475Y-132993124D01*
X82169865Y-132994329D01*
X82177548Y-132996000D01*
X83649884Y-132996000D01*
X83665123Y-132991525D01*
X83666328Y-132990135D01*
X83667999Y-132982452D01*
X83667999Y-131955331D01*
X83667629Y-131948510D01*
X83662105Y-131897648D01*
X83658479Y-131882396D01*
X83613324Y-131761946D01*
X83604786Y-131746351D01*
X83528285Y-131644276D01*
X83515724Y-131631715D01*
X83413649Y-131555214D01*
X83398054Y-131546676D01*
X83277606Y-131501522D01*
X83262351Y-131497895D01*
X83211486Y-131492369D01*
X83204672Y-131492000D01*
X82182115Y-131492000D01*
X82166876Y-131496475D01*
X82165671Y-131497865D01*
X82164000Y-131505548D01*
X82164000Y-132977885D01*
X81656000Y-132977885D01*
X81656000Y-131510116D01*
X81651525Y-131494877D01*
X81650135Y-131493672D01*
X81642452Y-131492001D01*
X80615331Y-131492001D01*
X80608510Y-131492371D01*
X80557648Y-131497895D01*
X80542396Y-131501521D01*
X80421946Y-131546676D01*
X80406351Y-131555214D01*
X80304276Y-131631715D01*
X80291715Y-131644276D01*
X80215214Y-131746351D01*
X80206676Y-131761946D01*
X80161522Y-131882394D01*
X80157895Y-131897649D01*
X80152369Y-131948514D01*
X80152000Y-131955328D01*
X80152000Y-132977885D01*
X77878500Y-132977885D01*
X77878500Y-132439594D01*
X77898502Y-132371473D01*
X77915405Y-132350499D01*
X99706316Y-110559588D01*
X99768628Y-110525562D01*
X99795411Y-110522683D01*
X111557509Y-110522683D01*
X111625630Y-110542685D01*
X111660722Y-110576413D01*
X111725523Y-110668959D01*
X111875048Y-110818484D01*
X112048266Y-110939772D01*
X112053244Y-110942093D01*
X112053247Y-110942095D01*
X112181787Y-111002034D01*
X112239914Y-111029139D01*
X112245222Y-111030561D01*
X112245224Y-111030562D01*
X112438854Y-111082445D01*
X112438856Y-111082445D01*
X112444169Y-111083869D01*
X112654824Y-111102299D01*
X112865479Y-111083869D01*
X112870792Y-111082445D01*
X112870794Y-111082445D01*
X113064424Y-111030562D01*
X113064426Y-111030561D01*
X113069734Y-111029139D01*
X113127861Y-111002034D01*
X113256401Y-110942095D01*
X113256404Y-110942093D01*
X113261382Y-110939772D01*
X113434600Y-110818484D01*
X113584125Y-110668959D01*
X113705413Y-110495741D01*
X113746224Y-110408223D01*
X113792457Y-110309075D01*
X113792458Y-110309074D01*
X113794780Y-110304093D01*
X113807568Y-110256370D01*
X113848086Y-110105153D01*
X113848086Y-110105151D01*
X113849510Y-110099838D01*
X113867940Y-109889183D01*
X113849510Y-109678528D01*
X113848086Y-109673213D01*
X113796203Y-109479583D01*
X113796202Y-109479581D01*
X113794780Y-109474273D01*
X113771203Y-109423711D01*
X113707736Y-109287606D01*
X113707734Y-109287603D01*
X113705413Y-109282625D01*
X113584125Y-109109407D01*
X113434600Y-108959882D01*
X113342054Y-108895081D01*
X113297725Y-108839624D01*
X113288324Y-108791868D01*
X113288324Y-108529770D01*
X113308326Y-108461649D01*
X113325229Y-108440675D01*
X115045057Y-106720847D01*
X115107369Y-106686821D01*
X115178184Y-106691886D01*
X115235020Y-106734433D01*
X115255859Y-106777331D01*
X115285902Y-106889453D01*
X115290044Y-106904910D01*
X115292366Y-106909891D01*
X115292367Y-106909892D01*
X115315038Y-106958509D01*
X115379411Y-107096558D01*
X115500699Y-107269776D01*
X115650224Y-107419301D01*
X115665317Y-107429869D01*
X115742770Y-107484102D01*
X115787099Y-107539559D01*
X115796500Y-107587315D01*
X115796500Y-108691233D01*
X115795973Y-108702416D01*
X115794298Y-108709909D01*
X115794547Y-108717835D01*
X115794547Y-108717836D01*
X115796438Y-108777986D01*
X115796500Y-108781945D01*
X115796500Y-108809856D01*
X115796997Y-108813790D01*
X115796997Y-108813791D01*
X115797005Y-108813856D01*
X115797938Y-108825693D01*
X115799327Y-108869889D01*
X115804978Y-108889339D01*
X115808987Y-108908700D01*
X115811526Y-108928797D01*
X115814445Y-108936168D01*
X115814445Y-108936170D01*
X115827804Y-108969912D01*
X115831649Y-108981142D01*
X115843982Y-109023593D01*
X115848015Y-109030412D01*
X115848017Y-109030417D01*
X115854293Y-109041028D01*
X115862988Y-109058776D01*
X115870448Y-109077617D01*
X115875110Y-109084033D01*
X115875110Y-109084034D01*
X115896436Y-109113387D01*
X115902952Y-109123307D01*
X115919980Y-109152099D01*
X115925458Y-109161362D01*
X115939779Y-109175683D01*
X115952619Y-109190716D01*
X115964528Y-109207107D01*
X115970634Y-109212158D01*
X115998605Y-109235298D01*
X116007384Y-109243288D01*
X129006343Y-122242247D01*
X129013887Y-122250537D01*
X129018000Y-122257018D01*
X129023777Y-122262443D01*
X129067667Y-122303658D01*
X129070509Y-122306413D01*
X129090230Y-122326134D01*
X129093425Y-122328612D01*
X129102447Y-122336318D01*
X129134679Y-122366586D01*
X129141628Y-122370406D01*
X129152432Y-122376346D01*
X129168956Y-122387199D01*
X129184959Y-122399613D01*
X129225543Y-122417176D01*
X129236173Y-122422383D01*
X129274940Y-122443695D01*
X129282617Y-122445666D01*
X129282622Y-122445668D01*
X129294558Y-122448732D01*
X129313266Y-122455137D01*
X129331855Y-122463181D01*
X129339680Y-122464420D01*
X129339682Y-122464421D01*
X129375519Y-122470097D01*
X129387140Y-122472504D01*
X129418959Y-122480673D01*
X129429970Y-122483500D01*
X129450231Y-122483500D01*
X129469940Y-122485051D01*
X129489943Y-122488219D01*
X129497835Y-122487473D01*
X129503062Y-122486979D01*
X129533954Y-122484059D01*
X129545811Y-122483500D01*
X131719233Y-122483500D01*
X131730416Y-122484027D01*
X131737909Y-122485702D01*
X131745835Y-122485453D01*
X131745836Y-122485453D01*
X131805986Y-122483562D01*
X131809945Y-122483500D01*
X131837856Y-122483500D01*
X131841791Y-122483003D01*
X131841856Y-122482995D01*
X131853693Y-122482062D01*
X131885951Y-122481048D01*
X131889970Y-122480922D01*
X131897889Y-122480673D01*
X131917343Y-122475021D01*
X131936700Y-122471013D01*
X131948930Y-122469468D01*
X131948931Y-122469468D01*
X131956797Y-122468474D01*
X131964168Y-122465555D01*
X131964170Y-122465555D01*
X131997912Y-122452196D01*
X132009142Y-122448351D01*
X132043983Y-122438229D01*
X132043984Y-122438229D01*
X132051593Y-122436018D01*
X132058412Y-122431985D01*
X132058417Y-122431983D01*
X132069028Y-122425707D01*
X132086776Y-122417012D01*
X132105617Y-122409552D01*
X132125987Y-122394753D01*
X132141387Y-122383564D01*
X132151307Y-122377048D01*
X132182535Y-122358580D01*
X132182538Y-122358578D01*
X132189362Y-122354542D01*
X132203683Y-122340221D01*
X132218717Y-122327380D01*
X132220432Y-122326134D01*
X132235107Y-122315472D01*
X132263298Y-122281395D01*
X132271288Y-122272616D01*
X134232493Y-120311411D01*
X137296215Y-120311411D01*
X137309287Y-120510851D01*
X137310708Y-120516447D01*
X137310709Y-120516452D01*
X137348339Y-120664617D01*
X137358486Y-120704570D01*
X137360903Y-120709812D01*
X137360903Y-120709813D01*
X137418454Y-120834650D01*
X137442163Y-120886079D01*
X137445496Y-120890795D01*
X137554184Y-121044587D01*
X137554187Y-121044590D01*
X137557516Y-121049301D01*
X137700682Y-121188767D01*
X137705478Y-121191972D01*
X137705481Y-121191974D01*
X137739305Y-121214574D01*
X137866867Y-121299808D01*
X137872170Y-121302086D01*
X137872173Y-121302088D01*
X137943690Y-121332814D01*
X138050504Y-121378705D01*
X138245445Y-121422815D01*
X138251219Y-121423042D01*
X138251220Y-121423042D01*
X138289274Y-121424537D01*
X138445159Y-121430662D01*
X138642959Y-121401983D01*
X138707781Y-121379979D01*
X138826753Y-121339593D01*
X138832221Y-121337737D01*
X139006606Y-121240077D01*
X139160273Y-121112273D01*
X139288077Y-120958606D01*
X139385737Y-120784221D01*
X139439131Y-120626928D01*
X139448127Y-120600427D01*
X139448127Y-120600426D01*
X139449983Y-120594959D01*
X139478662Y-120397159D01*
X139480159Y-120340000D01*
X139463787Y-120161824D01*
X139462400Y-120146724D01*
X139462399Y-120146721D01*
X139461871Y-120140970D01*
X139455580Y-120118664D01*
X139409186Y-119954164D01*
X139409185Y-119954162D01*
X139407618Y-119948605D01*
X139397243Y-119927566D01*
X139321774Y-119774528D01*
X139321771Y-119774524D01*
X139319219Y-119769348D01*
X139199632Y-119609203D01*
X139052864Y-119473532D01*
X138883830Y-119366879D01*
X138878470Y-119364741D01*
X138878467Y-119364739D01*
X138703554Y-119294956D01*
X138698190Y-119292816D01*
X138692533Y-119291691D01*
X138692527Y-119291689D01*
X138507829Y-119254951D01*
X138507827Y-119254951D01*
X138502162Y-119253824D01*
X138496387Y-119253748D01*
X138496383Y-119253748D01*
X138396721Y-119252444D01*
X138302310Y-119251208D01*
X138296613Y-119252187D01*
X138296612Y-119252187D01*
X138111025Y-119284076D01*
X138111024Y-119284076D01*
X138105328Y-119285055D01*
X137917813Y-119354233D01*
X137912852Y-119357185D01*
X137912851Y-119357185D01*
X137759519Y-119448409D01*
X137746045Y-119456425D01*
X137595776Y-119588207D01*
X137592209Y-119592732D01*
X137592204Y-119592737D01*
X137475647Y-119740590D01*
X137472038Y-119745168D01*
X137378977Y-119922049D01*
X137319707Y-120112927D01*
X137296215Y-120311411D01*
X134232493Y-120311411D01*
X137116064Y-117427840D01*
X137178376Y-117393814D01*
X137249191Y-117398879D01*
X137306027Y-117441426D01*
X137330838Y-117507946D01*
X137325491Y-117554300D01*
X137319707Y-117572927D01*
X137296215Y-117771411D01*
X137309287Y-117970851D01*
X137310708Y-117976447D01*
X137310709Y-117976452D01*
X137356485Y-118156690D01*
X137358486Y-118164570D01*
X137360903Y-118169812D01*
X137360903Y-118169813D01*
X137363608Y-118175680D01*
X137442163Y-118346079D01*
X137445496Y-118350795D01*
X137554184Y-118504587D01*
X137554187Y-118504590D01*
X137557516Y-118509301D01*
X137700682Y-118648767D01*
X137705478Y-118651972D01*
X137705481Y-118651974D01*
X137744564Y-118678088D01*
X137866867Y-118759808D01*
X137872170Y-118762086D01*
X137872173Y-118762088D01*
X137943690Y-118792814D01*
X138050504Y-118838705D01*
X138245445Y-118882815D01*
X138251219Y-118883042D01*
X138251220Y-118883042D01*
X138289274Y-118884537D01*
X138445159Y-118890662D01*
X138642959Y-118861983D01*
X138707781Y-118839979D01*
X138826753Y-118799593D01*
X138832221Y-118797737D01*
X139006606Y-118700077D01*
X139160273Y-118572273D01*
X139288077Y-118418606D01*
X139385737Y-118244221D01*
X139417860Y-118149590D01*
X139448127Y-118060427D01*
X139448127Y-118060426D01*
X139449983Y-118054959D01*
X139478662Y-117857159D01*
X139480159Y-117800000D01*
X139469050Y-117679099D01*
X139482736Y-117609435D01*
X139505427Y-117578477D01*
X140102247Y-116981657D01*
X140110537Y-116974113D01*
X140117018Y-116970000D01*
X140163659Y-116920332D01*
X140166413Y-116917491D01*
X140186134Y-116897770D01*
X140188612Y-116894575D01*
X140196318Y-116885553D01*
X140200961Y-116880609D01*
X140226586Y-116853321D01*
X140236346Y-116835568D01*
X140247199Y-116819045D01*
X140248356Y-116817553D01*
X140259613Y-116803041D01*
X140277176Y-116762457D01*
X140282383Y-116751827D01*
X140303695Y-116713060D01*
X140305666Y-116705383D01*
X140305668Y-116705378D01*
X140308732Y-116693442D01*
X140315138Y-116674730D01*
X140320034Y-116663417D01*
X140323181Y-116656145D01*
X140328788Y-116620748D01*
X140330097Y-116612481D01*
X140332504Y-116600860D01*
X140341528Y-116565711D01*
X140341528Y-116565710D01*
X140343500Y-116558030D01*
X140343500Y-116537769D01*
X140345051Y-116518058D01*
X140346979Y-116505885D01*
X140348219Y-116498057D01*
X140344059Y-116454046D01*
X140343500Y-116442189D01*
X140343500Y-112158768D01*
X140344027Y-112147585D01*
X140345702Y-112140092D01*
X140343562Y-112072001D01*
X140343500Y-112068044D01*
X140343500Y-112040144D01*
X140342996Y-112036153D01*
X140342063Y-112024311D01*
X140342035Y-112023396D01*
X140340674Y-111980111D01*
X140335021Y-111960652D01*
X140331012Y-111941293D01*
X140330016Y-111933413D01*
X140328474Y-111921203D01*
X140325558Y-111913837D01*
X140325556Y-111913831D01*
X140312200Y-111880098D01*
X140308355Y-111868868D01*
X140298230Y-111834017D01*
X140298230Y-111834016D01*
X140296019Y-111826407D01*
X140285705Y-111808966D01*
X140277008Y-111791213D01*
X140272472Y-111779758D01*
X140269552Y-111772383D01*
X140243563Y-111736612D01*
X140237047Y-111726692D01*
X140218578Y-111695463D01*
X140214542Y-111688638D01*
X140200221Y-111674317D01*
X140187380Y-111659283D01*
X140180132Y-111649307D01*
X140175472Y-111642893D01*
X140141407Y-111614712D01*
X140132626Y-111606722D01*
X139503647Y-110977742D01*
X139496113Y-110969463D01*
X139492000Y-110962982D01*
X139442348Y-110916356D01*
X139439507Y-110913602D01*
X139419770Y-110893865D01*
X139416573Y-110891385D01*
X139407551Y-110883680D01*
X139394122Y-110871069D01*
X139375321Y-110853414D01*
X139368375Y-110849595D01*
X139368372Y-110849593D01*
X139357566Y-110843652D01*
X139341047Y-110832801D01*
X139333181Y-110826700D01*
X139325041Y-110820386D01*
X139317772Y-110817241D01*
X139317768Y-110817238D01*
X139284463Y-110802826D01*
X139273813Y-110797609D01*
X139235060Y-110776305D01*
X139215437Y-110771267D01*
X139196734Y-110764863D01*
X139185420Y-110759967D01*
X139185419Y-110759967D01*
X139178145Y-110756819D01*
X139170322Y-110755580D01*
X139170312Y-110755577D01*
X139134476Y-110749901D01*
X139122856Y-110747495D01*
X139087711Y-110738472D01*
X139087710Y-110738472D01*
X139080030Y-110736500D01*
X139059776Y-110736500D01*
X139040065Y-110734949D01*
X139027886Y-110733020D01*
X139020057Y-110731780D01*
X138990786Y-110734547D01*
X138976039Y-110735941D01*
X138964181Y-110736500D01*
X137748768Y-110736500D01*
X137737585Y-110735973D01*
X137730092Y-110734298D01*
X137722166Y-110734547D01*
X137722165Y-110734547D01*
X137662002Y-110736438D01*
X137658044Y-110736500D01*
X137630144Y-110736500D01*
X137626154Y-110737004D01*
X137614320Y-110737936D01*
X137570111Y-110739326D01*
X137562497Y-110741538D01*
X137562492Y-110741539D01*
X137550659Y-110744977D01*
X137531296Y-110748988D01*
X137511203Y-110751526D01*
X137503836Y-110754443D01*
X137503831Y-110754444D01*
X137470092Y-110767802D01*
X137458865Y-110771646D01*
X137416407Y-110783982D01*
X137409581Y-110788019D01*
X137398972Y-110794293D01*
X137381224Y-110802988D01*
X137362383Y-110810448D01*
X137355967Y-110815110D01*
X137355966Y-110815110D01*
X137326613Y-110836436D01*
X137316693Y-110842952D01*
X137285465Y-110861420D01*
X137285462Y-110861422D01*
X137278638Y-110865458D01*
X137264317Y-110879779D01*
X137249284Y-110892619D01*
X137232893Y-110904528D01*
X137224217Y-110915016D01*
X137204702Y-110938605D01*
X137196712Y-110947384D01*
X133554500Y-114589595D01*
X133492188Y-114623621D01*
X133465405Y-114626500D01*
X131399453Y-114626500D01*
X131331332Y-114606498D01*
X131298496Y-114575890D01*
X131267087Y-114533829D01*
X131267084Y-114533825D01*
X131263632Y-114529203D01*
X131116864Y-114393532D01*
X130947830Y-114286879D01*
X130942470Y-114284741D01*
X130942467Y-114284739D01*
X130767554Y-114214956D01*
X130762190Y-114212816D01*
X130756533Y-114211691D01*
X130756527Y-114211689D01*
X130571829Y-114174951D01*
X130571827Y-114174951D01*
X130566162Y-114173824D01*
X130560387Y-114173748D01*
X130560383Y-114173748D01*
X130460721Y-114172444D01*
X130366310Y-114171208D01*
X130360617Y-114172186D01*
X130360607Y-114172187D01*
X130339128Y-114175878D01*
X130268604Y-114167700D01*
X130228697Y-114140793D01*
X130109751Y-114021847D01*
X130075725Y-113959535D01*
X130080790Y-113888720D01*
X130123337Y-113831884D01*
X130163347Y-113811856D01*
X130195124Y-113802525D01*
X130196329Y-113801135D01*
X130198000Y-113793452D01*
X130198000Y-113788884D01*
X130706000Y-113788884D01*
X130710475Y-113804123D01*
X130711865Y-113805328D01*
X130719548Y-113806999D01*
X131075669Y-113806999D01*
X131082490Y-113806629D01*
X131133352Y-113801105D01*
X131148604Y-113797479D01*
X131269054Y-113752324D01*
X131284649Y-113743786D01*
X131386724Y-113667285D01*
X131399285Y-113654724D01*
X131475786Y-113552649D01*
X131484324Y-113537054D01*
X131529478Y-113416606D01*
X131533105Y-113401351D01*
X131538631Y-113350486D01*
X131539000Y-113343672D01*
X131539000Y-112992115D01*
X131534525Y-112976876D01*
X131533135Y-112975671D01*
X131525452Y-112974000D01*
X130724115Y-112974000D01*
X130708876Y-112978475D01*
X130707671Y-112979865D01*
X130706000Y-112987548D01*
X130706000Y-113788884D01*
X130198000Y-113788884D01*
X130198000Y-112992115D01*
X130193525Y-112976876D01*
X130192135Y-112975671D01*
X130184452Y-112974000D01*
X129383116Y-112974000D01*
X129367877Y-112978475D01*
X129366671Y-112979867D01*
X129362316Y-112999885D01*
X129328291Y-113062198D01*
X129265979Y-113096223D01*
X129195163Y-113091158D01*
X129150101Y-113062197D01*
X128535789Y-112447885D01*
X129365000Y-112447885D01*
X129369475Y-112463124D01*
X129370865Y-112464329D01*
X129378548Y-112466000D01*
X130179885Y-112466000D01*
X130195124Y-112461525D01*
X130196329Y-112460135D01*
X130198000Y-112452452D01*
X130198000Y-112447885D01*
X130706000Y-112447885D01*
X130710475Y-112463124D01*
X130711865Y-112464329D01*
X130719548Y-112466000D01*
X131520884Y-112466000D01*
X131536123Y-112461525D01*
X131537328Y-112460135D01*
X131538999Y-112452452D01*
X131538999Y-112096331D01*
X131538629Y-112089510D01*
X131533105Y-112038648D01*
X131529479Y-112023396D01*
X131484324Y-111902946D01*
X131475786Y-111887351D01*
X131399285Y-111785276D01*
X131386724Y-111772715D01*
X131284649Y-111696214D01*
X131269054Y-111687676D01*
X131148606Y-111642522D01*
X131133351Y-111638895D01*
X131082486Y-111633369D01*
X131075672Y-111633000D01*
X130724115Y-111633000D01*
X130708876Y-111637475D01*
X130707671Y-111638865D01*
X130706000Y-111646548D01*
X130706000Y-112447885D01*
X130198000Y-112447885D01*
X130198000Y-111651116D01*
X130193525Y-111635877D01*
X130192135Y-111634672D01*
X130184452Y-111633001D01*
X129828331Y-111633001D01*
X129821510Y-111633371D01*
X129770648Y-111638895D01*
X129755396Y-111642521D01*
X129634946Y-111687676D01*
X129619351Y-111696214D01*
X129517276Y-111772715D01*
X129504715Y-111785276D01*
X129428214Y-111887351D01*
X129419676Y-111902946D01*
X129374522Y-112023394D01*
X129370895Y-112038649D01*
X129365369Y-112089514D01*
X129365000Y-112096328D01*
X129365000Y-112447885D01*
X128535789Y-112447885D01*
X126958974Y-110871069D01*
X123685682Y-107597777D01*
X123651656Y-107535465D01*
X123648777Y-107508682D01*
X123648777Y-101562763D01*
X123668779Y-101494642D01*
X123702507Y-101459550D01*
X123790541Y-101397908D01*
X123795053Y-101394749D01*
X123944578Y-101245224D01*
X124065866Y-101072006D01*
X124110491Y-100976309D01*
X124152910Y-100885340D01*
X124152911Y-100885339D01*
X124155233Y-100880358D01*
X124185470Y-100767514D01*
X124208539Y-100681418D01*
X124208539Y-100681416D01*
X124209963Y-100676103D01*
X124228393Y-100465448D01*
X124214015Y-100301109D01*
X124210442Y-100260264D01*
X124210441Y-100260260D01*
X124209963Y-100254793D01*
X124208541Y-100249487D01*
X124207730Y-100244887D01*
X124215598Y-100174327D01*
X124242720Y-100133910D01*
X124712253Y-99664377D01*
X124720539Y-99656837D01*
X124727018Y-99652725D01*
X124773644Y-99603073D01*
X124776398Y-99600232D01*
X124796135Y-99580495D01*
X124798615Y-99577298D01*
X124806320Y-99568276D01*
X124831159Y-99541825D01*
X124836586Y-99536046D01*
X124840405Y-99529100D01*
X124840407Y-99529097D01*
X124846348Y-99518291D01*
X124857199Y-99501772D01*
X124864758Y-99492026D01*
X124869614Y-99485766D01*
X124872759Y-99478497D01*
X124872762Y-99478493D01*
X124887174Y-99445188D01*
X124892391Y-99434538D01*
X124913695Y-99395785D01*
X124918733Y-99376162D01*
X124925137Y-99357459D01*
X124930033Y-99346145D01*
X124930033Y-99346144D01*
X124933181Y-99338870D01*
X124934420Y-99331047D01*
X124934423Y-99331037D01*
X124940099Y-99295201D01*
X124942505Y-99283581D01*
X124951528Y-99248436D01*
X124951528Y-99248435D01*
X124953500Y-99240755D01*
X124953500Y-99220501D01*
X124955051Y-99200790D01*
X124956980Y-99188611D01*
X124958220Y-99180782D01*
X124954059Y-99136763D01*
X124953500Y-99124906D01*
X124953500Y-89488767D01*
X124954027Y-89477584D01*
X124955702Y-89470091D01*
X124955192Y-89453845D01*
X124953562Y-89402001D01*
X124953500Y-89398043D01*
X124953500Y-89370144D01*
X124952996Y-89366153D01*
X124952063Y-89354311D01*
X124952057Y-89354094D01*
X124950674Y-89310111D01*
X124948462Y-89302497D01*
X124948461Y-89302492D01*
X124945023Y-89290659D01*
X124941012Y-89271295D01*
X124939467Y-89259064D01*
X124938474Y-89251203D01*
X124935557Y-89243836D01*
X124935556Y-89243831D01*
X124922198Y-89210092D01*
X124918354Y-89198865D01*
X124911327Y-89174679D01*
X124906018Y-89156407D01*
X124895707Y-89138972D01*
X124887012Y-89121224D01*
X124879552Y-89102383D01*
X124853564Y-89066613D01*
X124847048Y-89056693D01*
X124828580Y-89025465D01*
X124828578Y-89025462D01*
X124824542Y-89018638D01*
X124810221Y-89004317D01*
X124797380Y-88989283D01*
X124790131Y-88979306D01*
X124785472Y-88972893D01*
X124779367Y-88967842D01*
X124779362Y-88967837D01*
X124751396Y-88944701D01*
X124742618Y-88936713D01*
X123873652Y-88067747D01*
X123866112Y-88059461D01*
X123862000Y-88052982D01*
X123812348Y-88006356D01*
X123809507Y-88003602D01*
X123789770Y-87983865D01*
X123786573Y-87981385D01*
X123777551Y-87973680D01*
X123745321Y-87943414D01*
X123738375Y-87939595D01*
X123738372Y-87939593D01*
X123727566Y-87933652D01*
X123711047Y-87922801D01*
X123710583Y-87922441D01*
X123695041Y-87910386D01*
X123687772Y-87907241D01*
X123687768Y-87907238D01*
X123654463Y-87892826D01*
X123643813Y-87887609D01*
X123605060Y-87866305D01*
X123585437Y-87861267D01*
X123566734Y-87854863D01*
X123555420Y-87849967D01*
X123555419Y-87849967D01*
X123548145Y-87846819D01*
X123540322Y-87845580D01*
X123540312Y-87845577D01*
X123504476Y-87839901D01*
X123492856Y-87837495D01*
X123457711Y-87828472D01*
X123457710Y-87828472D01*
X123450030Y-87826500D01*
X123429776Y-87826500D01*
X123410065Y-87824949D01*
X123397886Y-87823020D01*
X123390057Y-87821780D01*
X123360786Y-87824547D01*
X123346039Y-87825941D01*
X123334181Y-87826500D01*
X121268768Y-87826500D01*
X121257585Y-87825973D01*
X121250092Y-87824298D01*
X121242166Y-87824547D01*
X121242165Y-87824547D01*
X121182002Y-87826438D01*
X121178044Y-87826500D01*
X121150144Y-87826500D01*
X121146154Y-87827004D01*
X121134320Y-87827936D01*
X121090111Y-87829326D01*
X121082497Y-87831538D01*
X121082492Y-87831539D01*
X121070659Y-87834977D01*
X121051296Y-87838988D01*
X121031203Y-87841526D01*
X121023836Y-87844443D01*
X121023831Y-87844444D01*
X120990092Y-87857802D01*
X120978865Y-87861646D01*
X120936407Y-87873982D01*
X120929581Y-87878019D01*
X120918972Y-87884293D01*
X120901224Y-87892988D01*
X120882383Y-87900448D01*
X120875967Y-87905110D01*
X120875966Y-87905110D01*
X120846613Y-87926436D01*
X120836693Y-87932952D01*
X120805465Y-87951420D01*
X120805462Y-87951422D01*
X120798638Y-87955458D01*
X120784317Y-87969779D01*
X120769284Y-87982619D01*
X120752893Y-87994528D01*
X120744217Y-88005016D01*
X120724702Y-88028605D01*
X120716712Y-88037384D01*
X119707747Y-89046348D01*
X119699461Y-89053888D01*
X119692982Y-89058000D01*
X119687557Y-89063777D01*
X119659646Y-89093500D01*
X119648399Y-89105477D01*
X119646357Y-89107651D01*
X119643602Y-89110493D01*
X119623865Y-89130230D01*
X119621385Y-89133427D01*
X119613682Y-89142447D01*
X119583414Y-89174679D01*
X119579595Y-89181625D01*
X119579593Y-89181628D01*
X119573652Y-89192434D01*
X119562801Y-89208953D01*
X119550386Y-89224959D01*
X119547241Y-89232228D01*
X119547238Y-89232232D01*
X119532826Y-89265537D01*
X119527609Y-89276187D01*
X119506305Y-89314940D01*
X119504334Y-89322615D01*
X119504334Y-89322616D01*
X119501267Y-89334562D01*
X119494863Y-89353266D01*
X119486819Y-89371855D01*
X119485580Y-89379678D01*
X119485577Y-89379688D01*
X119479901Y-89415524D01*
X119477495Y-89427144D01*
X119466500Y-89469970D01*
X119466500Y-89490224D01*
X119464949Y-89509934D01*
X119461780Y-89529943D01*
X119462526Y-89537835D01*
X119465941Y-89573961D01*
X119466500Y-89585819D01*
X119466500Y-92791667D01*
X119446498Y-92859788D01*
X119392842Y-92906281D01*
X119322568Y-92916385D01*
X119257988Y-92886891D01*
X119251405Y-92880762D01*
X119104023Y-92733380D01*
X118930805Y-92612092D01*
X118925827Y-92609771D01*
X118925824Y-92609769D01*
X118744139Y-92525048D01*
X118744138Y-92525047D01*
X118739157Y-92522725D01*
X118733849Y-92521303D01*
X118733847Y-92521302D01*
X118540217Y-92469419D01*
X118540215Y-92469419D01*
X118534902Y-92467995D01*
X118324247Y-92449565D01*
X118113592Y-92467995D01*
X118108279Y-92469419D01*
X118108277Y-92469419D01*
X117914647Y-92521302D01*
X117914645Y-92521303D01*
X117909337Y-92522725D01*
X117904356Y-92525047D01*
X117904355Y-92525048D01*
X117722670Y-92609769D01*
X117722667Y-92609771D01*
X117717689Y-92612092D01*
X117544471Y-92733380D01*
X117394946Y-92882905D01*
X117391787Y-92887417D01*
X117330145Y-92975451D01*
X117274688Y-93019780D01*
X117226932Y-93029181D01*
X105487276Y-93029181D01*
X105419155Y-93009179D01*
X105398181Y-92992276D01*
X90133652Y-77727747D01*
X90126112Y-77719461D01*
X90122000Y-77712982D01*
X90072348Y-77666356D01*
X90069507Y-77663602D01*
X90049770Y-77643865D01*
X90046573Y-77641385D01*
X90037551Y-77633680D01*
X90011100Y-77608841D01*
X90005321Y-77603414D01*
X89998375Y-77599595D01*
X89998372Y-77599593D01*
X89987566Y-77593652D01*
X89971047Y-77582801D01*
X89970583Y-77582441D01*
X89955041Y-77570386D01*
X89947772Y-77567241D01*
X89947768Y-77567238D01*
X89914463Y-77552826D01*
X89903813Y-77547609D01*
X89865060Y-77526305D01*
X89865059Y-77526305D01*
X89865866Y-77524838D01*
X89817319Y-77486952D01*
X89814895Y-77483197D01*
X89814488Y-77482324D01*
X89686977Y-77300219D01*
X89529781Y-77143023D01*
X89525273Y-77139866D01*
X89525270Y-77139864D01*
X89449505Y-77086813D01*
X89347677Y-77015512D01*
X89342695Y-77013189D01*
X89342690Y-77013186D01*
X89151178Y-76923883D01*
X89151177Y-76923882D01*
X89146196Y-76921560D01*
X89140888Y-76920138D01*
X89140886Y-76920137D01*
X89075051Y-76902497D01*
X88931463Y-76864022D01*
X88710000Y-76844647D01*
X88488537Y-76864022D01*
X88344949Y-76902497D01*
X88279114Y-76920137D01*
X88279112Y-76920138D01*
X88273804Y-76921560D01*
X88268823Y-76923882D01*
X88268822Y-76923883D01*
X88077311Y-77013186D01*
X88077306Y-77013189D01*
X88072324Y-77015512D01*
X88067817Y-77018668D01*
X88067815Y-77018669D01*
X87894730Y-77139864D01*
X87894727Y-77139866D01*
X87890219Y-77143023D01*
X87733023Y-77300219D01*
X87729866Y-77304727D01*
X87729864Y-77304730D01*
X87608669Y-77477815D01*
X87605512Y-77482324D01*
X87603189Y-77487306D01*
X87603186Y-77487311D01*
X87546516Y-77608841D01*
X87511560Y-77683804D01*
X87454022Y-77898537D01*
X87434647Y-78120000D01*
X87454022Y-78341463D01*
X87511560Y-78556196D01*
X87513882Y-78561177D01*
X87513883Y-78561178D01*
X87603186Y-78752689D01*
X87603189Y-78752694D01*
X87605512Y-78757676D01*
X87608668Y-78762183D01*
X87608669Y-78762185D01*
X87701463Y-78894708D01*
X87733023Y-78939781D01*
X87890219Y-79096977D01*
X87894727Y-79100134D01*
X87894730Y-79100136D01*
X87963280Y-79148135D01*
X88072323Y-79224488D01*
X88077305Y-79226811D01*
X88077310Y-79226814D01*
X88182965Y-79276081D01*
X88236250Y-79322998D01*
X88255711Y-79391275D01*
X88235169Y-79459235D01*
X88182965Y-79504471D01*
X88077559Y-79553623D01*
X88068068Y-79559103D01*
X88024235Y-79589794D01*
X88015860Y-79600271D01*
X88022928Y-79613718D01*
X88697188Y-80287978D01*
X88711132Y-80295592D01*
X88712965Y-80295461D01*
X88719580Y-80291210D01*
X89397793Y-79612997D01*
X89404223Y-79601223D01*
X89394926Y-79589207D01*
X89351931Y-79559102D01*
X89342445Y-79553624D01*
X89237035Y-79504471D01*
X89183750Y-79457554D01*
X89164289Y-79389277D01*
X89184831Y-79321317D01*
X89237035Y-79276081D01*
X89342690Y-79226814D01*
X89342695Y-79226811D01*
X89347677Y-79224488D01*
X89456720Y-79148135D01*
X89525270Y-79100136D01*
X89525273Y-79100134D01*
X89529781Y-79096977D01*
X89533678Y-79093080D01*
X89537881Y-79089553D01*
X89539203Y-79091128D01*
X89593644Y-79061400D01*
X89664459Y-79066465D01*
X89709522Y-79095426D01*
X104669024Y-94054928D01*
X104676568Y-94063218D01*
X104680681Y-94069699D01*
X104686458Y-94075124D01*
X104730348Y-94116339D01*
X104733190Y-94119094D01*
X104752911Y-94138815D01*
X104756106Y-94141293D01*
X104765128Y-94148999D01*
X104797360Y-94179267D01*
X104804309Y-94183087D01*
X104815113Y-94189027D01*
X104831637Y-94199880D01*
X104847640Y-94212294D01*
X104888224Y-94229857D01*
X104898854Y-94235064D01*
X104937621Y-94256376D01*
X104945298Y-94258347D01*
X104945303Y-94258349D01*
X104957239Y-94261413D01*
X104975947Y-94267818D01*
X104994536Y-94275862D01*
X105002364Y-94277102D01*
X105002371Y-94277104D01*
X105038205Y-94282780D01*
X105049825Y-94285186D01*
X105084970Y-94294209D01*
X105092651Y-94296181D01*
X105112905Y-94296181D01*
X105132615Y-94297732D01*
X105152624Y-94300901D01*
X105160516Y-94300155D01*
X105196642Y-94296740D01*
X105208500Y-94296181D01*
X117226932Y-94296181D01*
X117295053Y-94316183D01*
X117330145Y-94349911D01*
X117394946Y-94442457D01*
X117544471Y-94591982D01*
X117717689Y-94713270D01*
X117722667Y-94715591D01*
X117722670Y-94715593D01*
X117904355Y-94800314D01*
X117909337Y-94802637D01*
X117914645Y-94804059D01*
X117914647Y-94804060D01*
X118108277Y-94855943D01*
X118108279Y-94855943D01*
X118113592Y-94857367D01*
X118324247Y-94875797D01*
X118534902Y-94857367D01*
X118540215Y-94855943D01*
X118540217Y-94855943D01*
X118733847Y-94804060D01*
X118733849Y-94804059D01*
X118739157Y-94802637D01*
X118744139Y-94800314D01*
X118925824Y-94715593D01*
X118925827Y-94715591D01*
X118930805Y-94713270D01*
X119104023Y-94591982D01*
X119251405Y-94444600D01*
X119313717Y-94410574D01*
X119384532Y-94415639D01*
X119441368Y-94458186D01*
X119466179Y-94524706D01*
X119466500Y-94533695D01*
X119466500Y-95615405D01*
X119446498Y-95683526D01*
X119429595Y-95704500D01*
X107904500Y-107229595D01*
X107842188Y-107263621D01*
X107815405Y-107266500D01*
X94248768Y-107266500D01*
X94237585Y-107265973D01*
X94230092Y-107264298D01*
X94222166Y-107264547D01*
X94222165Y-107264547D01*
X94162002Y-107266438D01*
X94158044Y-107266500D01*
X94130144Y-107266500D01*
X94126154Y-107267004D01*
X94114320Y-107267936D01*
X94070111Y-107269326D01*
X94062495Y-107271539D01*
X94062493Y-107271539D01*
X94050652Y-107274979D01*
X94031293Y-107278988D01*
X94029983Y-107279154D01*
X94011203Y-107281526D01*
X94003837Y-107284442D01*
X94003831Y-107284444D01*
X93970098Y-107297800D01*
X93958868Y-107301645D01*
X93924017Y-107311770D01*
X93916407Y-107313981D01*
X93909584Y-107318016D01*
X93898966Y-107324295D01*
X93881213Y-107332992D01*
X93873568Y-107336019D01*
X93862383Y-107340448D01*
X93855968Y-107345109D01*
X93826612Y-107366437D01*
X93816695Y-107372951D01*
X93778638Y-107395458D01*
X93764317Y-107409779D01*
X93749284Y-107422619D01*
X93732893Y-107434528D01*
X93727842Y-107440634D01*
X93704702Y-107468605D01*
X93696712Y-107477384D01*
X85864500Y-115309595D01*
X85802188Y-115343621D01*
X85775405Y-115346500D01*
X82812460Y-115346500D01*
X82744339Y-115326498D01*
X82711502Y-115295889D01*
X82682100Y-115256515D01*
X82682099Y-115256514D01*
X82678647Y-115251891D01*
X82532419Y-115116719D01*
X82527536Y-115113638D01*
X82368886Y-115013537D01*
X82364006Y-115010458D01*
X82179049Y-114936668D01*
X82173389Y-114935542D01*
X82173385Y-114935541D01*
X81989410Y-114898946D01*
X81989405Y-114898946D01*
X81983742Y-114897819D01*
X81977967Y-114897743D01*
X81977963Y-114897743D01*
X81880390Y-114896466D01*
X81784625Y-114895212D01*
X81588368Y-114928936D01*
X81401543Y-114997859D01*
X81396582Y-115000811D01*
X81396581Y-115000811D01*
X81333049Y-115038609D01*
X81230406Y-115099675D01*
X81098571Y-115215291D01*
X81034171Y-115245166D01*
X80963838Y-115235480D01*
X80909906Y-115189307D01*
X80901981Y-115173626D01*
X80889786Y-115151351D01*
X80813285Y-115049276D01*
X80800724Y-115036715D01*
X80698649Y-114960214D01*
X80683054Y-114951676D01*
X80562606Y-114906522D01*
X80547351Y-114902895D01*
X80496486Y-114897369D01*
X80489672Y-114897000D01*
X80142115Y-114897000D01*
X80126876Y-114901475D01*
X80125671Y-114902865D01*
X80124000Y-114910548D01*
X80124000Y-117044884D01*
X80128475Y-117060123D01*
X80129865Y-117061328D01*
X80137548Y-117062999D01*
X80489669Y-117062999D01*
X80496490Y-117062629D01*
X80547352Y-117057105D01*
X80562604Y-117053479D01*
X80683054Y-117008324D01*
X80698649Y-116999786D01*
X80800724Y-116923285D01*
X80813285Y-116910724D01*
X80889786Y-116808649D01*
X80898322Y-116793057D01*
X80898397Y-116792858D01*
X80898524Y-116792689D01*
X80902634Y-116785182D01*
X80903717Y-116785775D01*
X80941037Y-116736092D01*
X81007597Y-116711390D01*
X81076947Y-116726594D01*
X81104301Y-116746827D01*
X81185210Y-116825645D01*
X81350784Y-116936278D01*
X81356087Y-116938556D01*
X81356090Y-116938558D01*
X81456406Y-116981657D01*
X81533746Y-117014885D01*
X81605276Y-117031071D01*
X81722332Y-117057558D01*
X81722337Y-117057559D01*
X81727969Y-117058833D01*
X81733740Y-117059060D01*
X81733742Y-117059060D01*
X81793969Y-117061426D01*
X81926949Y-117066651D01*
X82054156Y-117048207D01*
X82118300Y-117038907D01*
X82118304Y-117038906D01*
X82124022Y-117038077D01*
X82129494Y-117036219D01*
X82129496Y-117036219D01*
X82236822Y-116999786D01*
X82312587Y-116974067D01*
X82413611Y-116917491D01*
X82481291Y-116879588D01*
X82486330Y-116876766D01*
X82522876Y-116846372D01*
X82635001Y-116753119D01*
X82639433Y-116749433D01*
X82643119Y-116745001D01*
X82643125Y-116744995D01*
X82714703Y-116658931D01*
X82773640Y-116619347D01*
X82811577Y-116613500D01*
X86011233Y-116613500D01*
X86022416Y-116614027D01*
X86029909Y-116615702D01*
X86037835Y-116615453D01*
X86037836Y-116615453D01*
X86097986Y-116613562D01*
X86101945Y-116613500D01*
X86129856Y-116613500D01*
X86133791Y-116613003D01*
X86133856Y-116612995D01*
X86145693Y-116612062D01*
X86177951Y-116611048D01*
X86181970Y-116610922D01*
X86189889Y-116610673D01*
X86209343Y-116605021D01*
X86228700Y-116601013D01*
X86240930Y-116599468D01*
X86240931Y-116599468D01*
X86248797Y-116598474D01*
X86256168Y-116595555D01*
X86256170Y-116595555D01*
X86289912Y-116582196D01*
X86301142Y-116578351D01*
X86335983Y-116568229D01*
X86335984Y-116568229D01*
X86343593Y-116566018D01*
X86350412Y-116561985D01*
X86350417Y-116561983D01*
X86361028Y-116555707D01*
X86378776Y-116547012D01*
X86397617Y-116539552D01*
X86433387Y-116513564D01*
X86443307Y-116507048D01*
X86474535Y-116488580D01*
X86474538Y-116488578D01*
X86481362Y-116484542D01*
X86495683Y-116470221D01*
X86510717Y-116457380D01*
X86520694Y-116450131D01*
X86527107Y-116445472D01*
X86555298Y-116411395D01*
X86563288Y-116402616D01*
X94395499Y-108570405D01*
X94457811Y-108536379D01*
X94484594Y-108533500D01*
X108051233Y-108533500D01*
X108062416Y-108534027D01*
X108069909Y-108535702D01*
X108077835Y-108535453D01*
X108077836Y-108535453D01*
X108137986Y-108533562D01*
X108141945Y-108533500D01*
X108169856Y-108533500D01*
X108173791Y-108533003D01*
X108173856Y-108532995D01*
X108185693Y-108532062D01*
X108217951Y-108531048D01*
X108221970Y-108530922D01*
X108229889Y-108530673D01*
X108249343Y-108525021D01*
X108268700Y-108521013D01*
X108280930Y-108519468D01*
X108280931Y-108519468D01*
X108288797Y-108518474D01*
X108296168Y-108515555D01*
X108296170Y-108515555D01*
X108329912Y-108502196D01*
X108341142Y-108498351D01*
X108375983Y-108488229D01*
X108375984Y-108488229D01*
X108383593Y-108486018D01*
X108390412Y-108481985D01*
X108390417Y-108481983D01*
X108401028Y-108475707D01*
X108418776Y-108467012D01*
X108437617Y-108459552D01*
X108473387Y-108433564D01*
X108483307Y-108427048D01*
X108514535Y-108408580D01*
X108514538Y-108408578D01*
X108521362Y-108404542D01*
X108535683Y-108390221D01*
X108550717Y-108377380D01*
X108560694Y-108370131D01*
X108567107Y-108365472D01*
X108595298Y-108331395D01*
X108603288Y-108322616D01*
X120492247Y-96433657D01*
X120500537Y-96426113D01*
X120507018Y-96422000D01*
X120553659Y-96372332D01*
X120556413Y-96369491D01*
X120576134Y-96349770D01*
X120578612Y-96346575D01*
X120586318Y-96337553D01*
X120611158Y-96311101D01*
X120616586Y-96305321D01*
X120626346Y-96287568D01*
X120637199Y-96271045D01*
X120644753Y-96261306D01*
X120649613Y-96255041D01*
X120667176Y-96214457D01*
X120672383Y-96203827D01*
X120693695Y-96165060D01*
X120695666Y-96157383D01*
X120695668Y-96157378D01*
X120698732Y-96145442D01*
X120705138Y-96126730D01*
X120710034Y-96115417D01*
X120713181Y-96108145D01*
X120720097Y-96064481D01*
X120722504Y-96052860D01*
X120731528Y-96017711D01*
X120731528Y-96017710D01*
X120733500Y-96010030D01*
X120733500Y-95989769D01*
X120735051Y-95970058D01*
X120736979Y-95957885D01*
X120738219Y-95950057D01*
X120734059Y-95906046D01*
X120733500Y-95894189D01*
X120733500Y-89864595D01*
X120753502Y-89796474D01*
X120770405Y-89775499D01*
X121415501Y-89130404D01*
X121477813Y-89096379D01*
X121504596Y-89093500D01*
X121583901Y-89093500D01*
X121652022Y-89113502D01*
X121698515Y-89167158D01*
X121708619Y-89237432D01*
X121679125Y-89302012D01*
X121637151Y-89333695D01*
X121631387Y-89336383D01*
X121614176Y-89344408D01*
X121614173Y-89344410D01*
X121609195Y-89346731D01*
X121435977Y-89468019D01*
X121286452Y-89617544D01*
X121165164Y-89790762D01*
X121162843Y-89795740D01*
X121162841Y-89795743D01*
X121083582Y-89965715D01*
X121075797Y-89982410D01*
X121074375Y-89987718D01*
X121074374Y-89987720D01*
X121040880Y-90112721D01*
X121021067Y-90186665D01*
X121002637Y-90397320D01*
X121021067Y-90607975D01*
X121022491Y-90613288D01*
X121022491Y-90613290D01*
X121023021Y-90615266D01*
X121075797Y-90812230D01*
X121078119Y-90817211D01*
X121078120Y-90817212D01*
X121156355Y-90984986D01*
X121165164Y-91003878D01*
X121286452Y-91177096D01*
X121435977Y-91326621D01*
X121503032Y-91373573D01*
X121528523Y-91391422D01*
X121572852Y-91446879D01*
X121582253Y-91494635D01*
X121582253Y-98259652D01*
X121562251Y-98327773D01*
X121545348Y-98348748D01*
X121237742Y-98656353D01*
X121229463Y-98663887D01*
X121222982Y-98668000D01*
X121184741Y-98708723D01*
X121176357Y-98717651D01*
X121173602Y-98720493D01*
X121153865Y-98740230D01*
X121151385Y-98743427D01*
X121143682Y-98752447D01*
X121113414Y-98784679D01*
X121109595Y-98791625D01*
X121109593Y-98791628D01*
X121103652Y-98802434D01*
X121092801Y-98818953D01*
X121080386Y-98834959D01*
X121077241Y-98842228D01*
X121077238Y-98842232D01*
X121062826Y-98875537D01*
X121057609Y-98886187D01*
X121036305Y-98924940D01*
X121034334Y-98932615D01*
X121034334Y-98932616D01*
X121031267Y-98944562D01*
X121024863Y-98963266D01*
X121016819Y-98981855D01*
X121015580Y-98989678D01*
X121015577Y-98989688D01*
X121009901Y-99025524D01*
X121007495Y-99037144D01*
X121000023Y-99066247D01*
X120996500Y-99079970D01*
X120996500Y-99100224D01*
X120994949Y-99119934D01*
X120991780Y-99139943D01*
X120992526Y-99147835D01*
X120995941Y-99183961D01*
X120996500Y-99195819D01*
X120996500Y-101926405D01*
X120976498Y-101994526D01*
X120922842Y-102041019D01*
X120852568Y-102051123D01*
X120787988Y-102021629D01*
X120781404Y-102015500D01*
X120760431Y-101994526D01*
X120563647Y-101797742D01*
X120556113Y-101789463D01*
X120552000Y-101782982D01*
X120502348Y-101736356D01*
X120499507Y-101733602D01*
X120479770Y-101713865D01*
X120476573Y-101711385D01*
X120467551Y-101703680D01*
X120458519Y-101695198D01*
X120435321Y-101673414D01*
X120428375Y-101669595D01*
X120428372Y-101669593D01*
X120417566Y-101663652D01*
X120401047Y-101652801D01*
X120400583Y-101652441D01*
X120385041Y-101640386D01*
X120377772Y-101637241D01*
X120377768Y-101637238D01*
X120344463Y-101622826D01*
X120333813Y-101617609D01*
X120295060Y-101596305D01*
X120275437Y-101591267D01*
X120256734Y-101584863D01*
X120245420Y-101579967D01*
X120245419Y-101579967D01*
X120238145Y-101576819D01*
X120230322Y-101575580D01*
X120230312Y-101575577D01*
X120194476Y-101569901D01*
X120182856Y-101567495D01*
X120147711Y-101558472D01*
X120147710Y-101558472D01*
X120140030Y-101556500D01*
X120119776Y-101556500D01*
X120100065Y-101554949D01*
X120087886Y-101553020D01*
X120080057Y-101551780D01*
X120050786Y-101554547D01*
X120036039Y-101555941D01*
X120024181Y-101556500D01*
X118758768Y-101556500D01*
X118747585Y-101555973D01*
X118740092Y-101554298D01*
X118732166Y-101554547D01*
X118732165Y-101554547D01*
X118672002Y-101556438D01*
X118668044Y-101556500D01*
X118640144Y-101556500D01*
X118636154Y-101557004D01*
X118624320Y-101557936D01*
X118580111Y-101559326D01*
X118572495Y-101561539D01*
X118572493Y-101561539D01*
X118560652Y-101564979D01*
X118541293Y-101568988D01*
X118539983Y-101569154D01*
X118521203Y-101571526D01*
X118513837Y-101574442D01*
X118513831Y-101574444D01*
X118480098Y-101587800D01*
X118468868Y-101591645D01*
X118452828Y-101596305D01*
X118426407Y-101603981D01*
X118419584Y-101608016D01*
X118408966Y-101614295D01*
X118391213Y-101622992D01*
X118386372Y-101624909D01*
X118372383Y-101630448D01*
X118359005Y-101640168D01*
X118336612Y-101656437D01*
X118326695Y-101662951D01*
X118288638Y-101685458D01*
X118274317Y-101699779D01*
X118259284Y-101712619D01*
X118242893Y-101724528D01*
X118234217Y-101735016D01*
X118214702Y-101758605D01*
X118206712Y-101767384D01*
X112262571Y-107711524D01*
X112254285Y-107719064D01*
X112247806Y-107723176D01*
X112242381Y-107728953D01*
X112201181Y-107772827D01*
X112198426Y-107775669D01*
X112178689Y-107795406D01*
X112176209Y-107798603D01*
X112168506Y-107807623D01*
X112138238Y-107839855D01*
X112134419Y-107846801D01*
X112134417Y-107846804D01*
X112128476Y-107857610D01*
X112117625Y-107874129D01*
X112105210Y-107890135D01*
X112102065Y-107897404D01*
X112102062Y-107897408D01*
X112087650Y-107930713D01*
X112082433Y-107941363D01*
X112061129Y-107980116D01*
X112059158Y-107987791D01*
X112059158Y-107987792D01*
X112056091Y-107999738D01*
X112049687Y-108018442D01*
X112041643Y-108037031D01*
X112040404Y-108044854D01*
X112040401Y-108044864D01*
X112034725Y-108080700D01*
X112032319Y-108092320D01*
X112021324Y-108135146D01*
X112021324Y-108155400D01*
X112019773Y-108175110D01*
X112016604Y-108195119D01*
X112017350Y-108203011D01*
X112020765Y-108239137D01*
X112021324Y-108250995D01*
X112021324Y-108791868D01*
X112001322Y-108859989D01*
X111967594Y-108895081D01*
X111875048Y-108959882D01*
X111725523Y-109109407D01*
X111661604Y-109200694D01*
X111660722Y-109201953D01*
X111605265Y-109246282D01*
X111557509Y-109255683D01*
X99559584Y-109255683D01*
X99548401Y-109255156D01*
X99540908Y-109253481D01*
X99532982Y-109253730D01*
X99532981Y-109253730D01*
X99472831Y-109255621D01*
X99468872Y-109255683D01*
X99440961Y-109255683D01*
X99437027Y-109256180D01*
X99437026Y-109256180D01*
X99436961Y-109256188D01*
X99425124Y-109257121D01*
X99393307Y-109258121D01*
X99388846Y-109258261D01*
X99380927Y-109258510D01*
X99363271Y-109263639D01*
X99361475Y-109264161D01*
X99342123Y-109268169D01*
X99335052Y-109269063D01*
X99322020Y-109270709D01*
X99314651Y-109273626D01*
X99314649Y-109273627D01*
X99280914Y-109286983D01*
X99269686Y-109290828D01*
X99227224Y-109303165D01*
X99220402Y-109307199D01*
X99220396Y-109307202D01*
X99209785Y-109313477D01*
X99192035Y-109322173D01*
X99180573Y-109326711D01*
X99180568Y-109326714D01*
X99173200Y-109329631D01*
X99166785Y-109334292D01*
X99137442Y-109355610D01*
X99127524Y-109362126D01*
X99108836Y-109373178D01*
X99089454Y-109384641D01*
X99075130Y-109398965D01*
X99060098Y-109411804D01*
X99043710Y-109423711D01*
X99015529Y-109457776D01*
X99007539Y-109466556D01*
X77019500Y-131454595D01*
X76957188Y-131488621D01*
X76930405Y-131491500D01*
X74821866Y-131491500D01*
X74759684Y-131498255D01*
X74623295Y-131549385D01*
X74506739Y-131636739D01*
X74419385Y-131753295D01*
X74368255Y-131889684D01*
X74361500Y-131951866D01*
X74361500Y-134548134D01*
X72169700Y-134548134D01*
X72169700Y-122898108D01*
X72169723Y-122895692D01*
X72178269Y-122450125D01*
X72178460Y-122445205D01*
X72203086Y-122022976D01*
X72203490Y-122017852D01*
X72243793Y-121612289D01*
X72244425Y-121607043D01*
X72255773Y-121527092D01*
X72269491Y-121430435D01*
X72299750Y-121217240D01*
X72300625Y-121211905D01*
X72370291Y-120837365D01*
X72371421Y-120831953D01*
X72381319Y-120789256D01*
X72410609Y-120662900D01*
X72454902Y-120471822D01*
X72456285Y-120466403D01*
X72552990Y-120119916D01*
X72554627Y-120114521D01*
X72664106Y-119780715D01*
X72665968Y-119775436D01*
X72787598Y-119453617D01*
X72789700Y-119448409D01*
X72923129Y-119137966D01*
X72925420Y-119132942D01*
X72939001Y-119104811D01*
X73022046Y-118932788D01*
X73070279Y-118832877D01*
X73072733Y-118828062D01*
X73225526Y-118543424D01*
X73229413Y-118536689D01*
X73576259Y-117976483D01*
X73581677Y-117968441D01*
X73660360Y-117860833D01*
X73964550Y-117444815D01*
X73969926Y-117437972D01*
X74389221Y-116940613D01*
X74394310Y-116934934D01*
X74667255Y-116648318D01*
X74713584Y-116599669D01*
X78787001Y-116599669D01*
X78787371Y-116606490D01*
X78792895Y-116657352D01*
X78796521Y-116672604D01*
X78841676Y-116793054D01*
X78850214Y-116808649D01*
X78926715Y-116910724D01*
X78939276Y-116923285D01*
X79041351Y-116999786D01*
X79056946Y-117008324D01*
X79177394Y-117053478D01*
X79192649Y-117057105D01*
X79243514Y-117062631D01*
X79250328Y-117063000D01*
X79597885Y-117063000D01*
X79613124Y-117058525D01*
X79614329Y-117057135D01*
X79616000Y-117049452D01*
X79616000Y-116252115D01*
X79611525Y-116236876D01*
X79610135Y-116235671D01*
X79602452Y-116234000D01*
X78805116Y-116234000D01*
X78789877Y-116238475D01*
X78788672Y-116239865D01*
X78787001Y-116247548D01*
X78787001Y-116599669D01*
X74713584Y-116599669D01*
X74847146Y-116459418D01*
X74851659Y-116454915D01*
X75334421Y-115997154D01*
X75338271Y-115993652D01*
X75665804Y-115707885D01*
X78787000Y-115707885D01*
X78791475Y-115723124D01*
X78792865Y-115724329D01*
X78800548Y-115726000D01*
X79597885Y-115726000D01*
X79613124Y-115721525D01*
X79614329Y-115720135D01*
X79616000Y-115712452D01*
X79616000Y-114915116D01*
X79611525Y-114899877D01*
X79610135Y-114898672D01*
X79602452Y-114897001D01*
X79250331Y-114897001D01*
X79243510Y-114897371D01*
X79192648Y-114902895D01*
X79177396Y-114906521D01*
X79056946Y-114951676D01*
X79041351Y-114960214D01*
X78939276Y-115036715D01*
X78926715Y-115049276D01*
X78850214Y-115151351D01*
X78841676Y-115166946D01*
X78796522Y-115287394D01*
X78792895Y-115302649D01*
X78787369Y-115353514D01*
X78787000Y-115360328D01*
X78787000Y-115707885D01*
X75665804Y-115707885D01*
X75761296Y-115624570D01*
X75846894Y-115549887D01*
X75849976Y-115547285D01*
X75888778Y-115515571D01*
X76380730Y-115113474D01*
X76382946Y-115111705D01*
X76930828Y-114684211D01*
X76932434Y-114682978D01*
X78034883Y-113850932D01*
X78036235Y-113849983D01*
X78037733Y-113849164D01*
X78060245Y-113831884D01*
X78067110Y-113826614D01*
X78067927Y-113825993D01*
X78068516Y-113825549D01*
X78094940Y-113805605D01*
X78096145Y-113804392D01*
X78097436Y-113803335D01*
X79175429Y-112975836D01*
X79180474Y-112972158D01*
X79182637Y-112970662D01*
X79186847Y-112968207D01*
X79210768Y-112948769D01*
X79213477Y-112946629D01*
X79235462Y-112929753D01*
X79238596Y-112926546D01*
X79241757Y-112923741D01*
X79245911Y-112920212D01*
X79520624Y-112696984D01*
X79744397Y-112515149D01*
X79749084Y-112511520D01*
X79752838Y-112508752D01*
X79756971Y-112506172D01*
X79779665Y-112486565D01*
X79782577Y-112484124D01*
X79799999Y-112469967D01*
X79803472Y-112467145D01*
X79806510Y-112463859D01*
X79809787Y-112460785D01*
X79809884Y-112460888D01*
X79814101Y-112456813D01*
X80302999Y-112034407D01*
X80308973Y-112029820D01*
X80308954Y-112029797D01*
X80312755Y-112026760D01*
X80316781Y-112024023D01*
X80336728Y-112005387D01*
X80340309Y-112002170D01*
X80358620Y-111986350D01*
X80361567Y-111982963D01*
X80363421Y-111981115D01*
X80369958Y-111974342D01*
X80565974Y-111791213D01*
X80846927Y-111528731D01*
X80857242Y-111520080D01*
X80861625Y-111516786D01*
X80878753Y-111499190D01*
X80882972Y-111495055D01*
X80898655Y-111480403D01*
X80902589Y-111475509D01*
X80910488Y-111466585D01*
X81370974Y-110993489D01*
X81380084Y-110985011D01*
X81382558Y-110982927D01*
X81382561Y-110982924D01*
X81386280Y-110979791D01*
X81389473Y-110976123D01*
X81389479Y-110976117D01*
X81400686Y-110963243D01*
X81405431Y-110958088D01*
X81414844Y-110948417D01*
X81418572Y-110944587D01*
X81422080Y-110939772D01*
X81423818Y-110937387D01*
X81430619Y-110928855D01*
X81870209Y-110423861D01*
X81878125Y-110415562D01*
X81882279Y-110411587D01*
X81882284Y-110411581D01*
X81885793Y-110408223D01*
X81897617Y-110392761D01*
X81902649Y-110386595D01*
X81913415Y-110374227D01*
X81919620Y-110364631D01*
X81925334Y-110356516D01*
X82104150Y-110122679D01*
X82339242Y-109815252D01*
X82346021Y-109807121D01*
X82351372Y-109801226D01*
X82351376Y-109801221D01*
X82354643Y-109797621D01*
X82357324Y-109793552D01*
X82364145Y-109783199D01*
X82369271Y-109775983D01*
X82375165Y-109768275D01*
X82377892Y-109764709D01*
X82380082Y-109760799D01*
X82380088Y-109760790D01*
X82384575Y-109752779D01*
X82389285Y-109745037D01*
X82699848Y-109273627D01*
X82769109Y-109168495D01*
X82776426Y-109158497D01*
X82781610Y-109152099D01*
X82784057Y-109147890D01*
X82784062Y-109147882D01*
X82792582Y-109133224D01*
X82796289Y-109127238D01*
X82806584Y-109111611D01*
X82808496Y-109107553D01*
X82810432Y-109103444D01*
X82815479Y-109093830D01*
X82941221Y-108877497D01*
X82973222Y-108822442D01*
X82977401Y-108816122D01*
X82977380Y-108816108D01*
X82979984Y-108811997D01*
X82982903Y-108808092D01*
X82995654Y-108784038D01*
X82998020Y-108779779D01*
X83007874Y-108762826D01*
X83007875Y-108762823D01*
X83010129Y-108758946D01*
X83011812Y-108754783D01*
X83012879Y-108752605D01*
X83016950Y-108743863D01*
X83040171Y-108700058D01*
X83163956Y-108466538D01*
X83167973Y-108459909D01*
X83167968Y-108459906D01*
X83170409Y-108455689D01*
X83173164Y-108451678D01*
X83184803Y-108427427D01*
X83187066Y-108422942D01*
X83194679Y-108408580D01*
X83198223Y-108401895D01*
X83199739Y-108397679D01*
X83200374Y-108396243D01*
X83204501Y-108386383D01*
X83342973Y-108097852D01*
X83346856Y-108090820D01*
X83349035Y-108086677D01*
X83351625Y-108082560D01*
X83362224Y-108057973D01*
X83364331Y-108053347D01*
X83374571Y-108032012D01*
X83375915Y-108027748D01*
X83376360Y-108026621D01*
X83380246Y-108016175D01*
X83509690Y-107715927D01*
X83513577Y-107708155D01*
X83515344Y-107704433D01*
X83517766Y-107700209D01*
X83527282Y-107675388D01*
X83529225Y-107670616D01*
X83536762Y-107653134D01*
X83536765Y-107653126D01*
X83538535Y-107649020D01*
X83539706Y-107644704D01*
X83539950Y-107644004D01*
X83543585Y-107632867D01*
X83663413Y-107320317D01*
X83667010Y-107312323D01*
X83668599Y-107308591D01*
X83670844Y-107304273D01*
X83679336Y-107279082D01*
X83681082Y-107274231D01*
X83682963Y-107269326D01*
X83689492Y-107252295D01*
X83690488Y-107247920D01*
X83690705Y-107247206D01*
X83693876Y-107235946D01*
X83803585Y-106910487D01*
X83806947Y-106902112D01*
X83808309Y-106898507D01*
X83810368Y-106894115D01*
X83817806Y-106868628D01*
X83819363Y-106863677D01*
X83825405Y-106845754D01*
X83826838Y-106841503D01*
X83827653Y-106837095D01*
X83827811Y-106836487D01*
X83830553Y-106824953D01*
X83868429Y-106695175D01*
X83929403Y-106486250D01*
X83932036Y-106478835D01*
X83933553Y-106474270D01*
X83935442Y-106469780D01*
X83941920Y-106443722D01*
X83943233Y-106438863D01*
X83948623Y-106420396D01*
X83949875Y-106416107D01*
X83950508Y-106411673D01*
X83950785Y-106410390D01*
X83952892Y-106399596D01*
X83969098Y-106334417D01*
X84040578Y-106046917D01*
X84042999Y-106039108D01*
X84044260Y-106034729D01*
X84045965Y-106030167D01*
X84046947Y-106025401D01*
X84046949Y-106025394D01*
X84051359Y-106003987D01*
X84052490Y-105999010D01*
X84057111Y-105980425D01*
X84057113Y-105980412D01*
X84058192Y-105976073D01*
X84058645Y-105971629D01*
X84058839Y-105970514D01*
X84060545Y-105959397D01*
X84136182Y-105592256D01*
X84138133Y-105584948D01*
X84138106Y-105584941D01*
X84139269Y-105580221D01*
X84140796Y-105575591D01*
X84145248Y-105548723D01*
X84146145Y-105543898D01*
X84150106Y-105524669D01*
X84151011Y-105520277D01*
X84151284Y-105515800D01*
X84151617Y-105513293D01*
X84152686Y-105503835D01*
X84216007Y-105121713D01*
X84217664Y-105114373D01*
X84217633Y-105114367D01*
X84218612Y-105109602D01*
X84219958Y-105104919D01*
X84223375Y-105077815D01*
X84224074Y-105073029D01*
X84227295Y-105053594D01*
X84227296Y-105053585D01*
X84228029Y-105049161D01*
X84228128Y-105044675D01*
X84228379Y-105041984D01*
X84229064Y-105032704D01*
X84229947Y-105025707D01*
X84279211Y-104635014D01*
X84280533Y-104627906D01*
X84280469Y-104627895D01*
X84281270Y-104623098D01*
X84282439Y-104618374D01*
X84284888Y-104590683D01*
X84285388Y-104586023D01*
X84287911Y-104566010D01*
X84288472Y-104561563D01*
X84288397Y-104557075D01*
X84288628Y-104552819D01*
X84288894Y-104545381D01*
X84291683Y-104513841D01*
X84325486Y-104131604D01*
X84326516Y-104124670D01*
X84326426Y-104124658D01*
X84327054Y-104119827D01*
X84328052Y-104115064D01*
X84329516Y-104086963D01*
X84329835Y-104082423D01*
X84331642Y-104061988D01*
X84332038Y-104057516D01*
X84331795Y-104053033D01*
X84331872Y-104048553D01*
X84331890Y-104048553D01*
X84331884Y-104041536D01*
X84354323Y-103610988D01*
X84355085Y-103604205D01*
X84354972Y-103604194D01*
X84355430Y-103599343D01*
X84356259Y-103594551D01*
X84356739Y-103566135D01*
X84356892Y-103561705D01*
X84357977Y-103540887D01*
X84357977Y-103540884D01*
X84358210Y-103536413D01*
X84357807Y-103531957D01*
X84357722Y-103527466D01*
X84357758Y-103527465D01*
X84357508Y-103520632D01*
X84362697Y-103213425D01*
X84365434Y-103051430D01*
X84365742Y-103044506D01*
X84368751Y-103002811D01*
X84374899Y-102917588D01*
X84375991Y-102907803D01*
X84389840Y-102816328D01*
X84396909Y-102769632D01*
X84398795Y-102759818D01*
X84441091Y-102578865D01*
X84444430Y-102567162D01*
X84482494Y-102454657D01*
X84513132Y-102364097D01*
X84518646Y-102350475D01*
X84618018Y-102141011D01*
X84626717Y-102125579D01*
X84768376Y-101911086D01*
X84777460Y-101898981D01*
X84851172Y-101812149D01*
X84858640Y-101804092D01*
X84960103Y-101703776D01*
X84964811Y-101699354D01*
X88019058Y-98974580D01*
X89032590Y-98070383D01*
X89037151Y-98066505D01*
X89075646Y-98035322D01*
X89075649Y-98035319D01*
X89082626Y-98029667D01*
X89106949Y-97994527D01*
X89114190Y-97985057D01*
X89135929Y-97959253D01*
X89135930Y-97959252D01*
X89141714Y-97952386D01*
X89146719Y-97941046D01*
X89158384Y-97920218D01*
X89160331Y-97917404D01*
X89165443Y-97910019D01*
X89168275Y-97901502D01*
X89168277Y-97901497D01*
X89178926Y-97869463D01*
X89183214Y-97858351D01*
X89200466Y-97819260D01*
X89202087Y-97806971D01*
X89207437Y-97783705D01*
X89211350Y-97771935D01*
X89212909Y-97729221D01*
X89213905Y-97717361D01*
X89219492Y-97674995D01*
X89218121Y-97666123D01*
X89209917Y-97613050D01*
X89209314Y-97608635D01*
X89189071Y-97437870D01*
X89188250Y-97426754D01*
X89182919Y-97246100D01*
X89183093Y-97234786D01*
X89190237Y-97116524D01*
X89197483Y-96996559D01*
X89199063Y-96982884D01*
X89247713Y-96698905D01*
X89250294Y-96687210D01*
X89286875Y-96552284D01*
X89289536Y-96543696D01*
X89340586Y-96397584D01*
X89344200Y-96388411D01*
X89408701Y-96241773D01*
X89413354Y-96232294D01*
X89492935Y-96086006D01*
X89498687Y-96076463D01*
X89594900Y-95931730D01*
X89601837Y-95922280D01*
X89711353Y-95786784D01*
X89721711Y-95775455D01*
X89739972Y-95757779D01*
X89746422Y-95751536D01*
X89779192Y-95693926D01*
X89780481Y-95691711D01*
X89809856Y-95642430D01*
X89809857Y-95642427D01*
X89814451Y-95634720D01*
X89821937Y-95605767D01*
X89829439Y-95584692D01*
X89841649Y-95558129D01*
X89841651Y-95558124D01*
X89845398Y-95549971D01*
X89852580Y-95501248D01*
X89854283Y-95492069D01*
X89863091Y-95452772D01*
X89863091Y-95452769D01*
X89865054Y-95444012D01*
X89861486Y-95388346D01*
X89861233Y-95381325D01*
X89861027Y-95355768D01*
X89860857Y-95334866D01*
X89861214Y-95327405D01*
X89862768Y-95321216D01*
X89862422Y-95312240D01*
X89860285Y-95256838D01*
X89860195Y-95253005D01*
X89860024Y-95231995D01*
X89859988Y-95227509D01*
X89859316Y-95223069D01*
X89858962Y-95218614D01*
X89859121Y-95218601D01*
X89859038Y-95217730D01*
X89858646Y-95214355D01*
X89858458Y-95209493D01*
X89853643Y-95184858D01*
X89852724Y-95179560D01*
X89845056Y-95128939D01*
X89845055Y-95128936D01*
X89843712Y-95120070D01*
X89840034Y-95112151D01*
X89837184Y-95100648D01*
X89830724Y-95067605D01*
X89829446Y-95059758D01*
X89827524Y-95045055D01*
X89826893Y-95040226D01*
X89823920Y-95030056D01*
X89821201Y-95018882D01*
X89820627Y-95015947D01*
X89819768Y-95011552D01*
X89812988Y-94992093D01*
X89811049Y-94986036D01*
X89773947Y-94859140D01*
X89771399Y-94848823D01*
X89768875Y-94836364D01*
X89762831Y-94820024D01*
X89760072Y-94811683D01*
X89756050Y-94797928D01*
X89750458Y-94785627D01*
X89746989Y-94777201D01*
X89683972Y-94606857D01*
X89680233Y-94594974D01*
X89679421Y-94591864D01*
X89679420Y-94591860D01*
X89678191Y-94587155D01*
X89669440Y-94567014D01*
X89666834Y-94560529D01*
X89661847Y-94547048D01*
X89661844Y-94547042D01*
X89660288Y-94542835D01*
X89656054Y-94535021D01*
X89651276Y-94525212D01*
X89555423Y-94304609D01*
X89553181Y-94298456D01*
X89553044Y-94298508D01*
X89551298Y-94293959D01*
X89549911Y-94289297D01*
X89540379Y-94269239D01*
X89537507Y-94263197D01*
X89535746Y-94259324D01*
X89527270Y-94239816D01*
X89527270Y-94239815D01*
X89525482Y-94235701D01*
X89523129Y-94231883D01*
X89521054Y-94227906D01*
X89521114Y-94227875D01*
X89517991Y-94222132D01*
X88788696Y-92687535D01*
X88788135Y-92686238D01*
X88787696Y-92684800D01*
X88785966Y-92681225D01*
X88785957Y-92681205D01*
X88771377Y-92651084D01*
X88771078Y-92650462D01*
X88756366Y-92619505D01*
X88755540Y-92618260D01*
X88754877Y-92616996D01*
X88328168Y-91735416D01*
X88319258Y-91710737D01*
X88250263Y-91431426D01*
X88247819Y-91421535D01*
X88245336Y-91408618D01*
X88245140Y-91407207D01*
X88244472Y-91402386D01*
X88243071Y-91397727D01*
X88237633Y-91379646D01*
X88235971Y-91373573D01*
X88231028Y-91353562D01*
X88229346Y-91349404D01*
X88229343Y-91349395D01*
X88228375Y-91347003D01*
X88224518Y-91336042D01*
X88177884Y-91180991D01*
X88130633Y-91023888D01*
X88128034Y-91013723D01*
X88125326Y-91000936D01*
X88122135Y-90992540D01*
X88119265Y-90984986D01*
X88116387Y-90976520D01*
X88113658Y-90967448D01*
X88112367Y-90963155D01*
X88106523Y-90950558D01*
X88103041Y-90942294D01*
X88089824Y-90907513D01*
X87975992Y-90607975D01*
X87968302Y-90587739D01*
X87967959Y-90586825D01*
X87893465Y-90386130D01*
X87889714Y-90374256D01*
X87883028Y-90348767D01*
X87834851Y-90165120D01*
X87820827Y-90111660D01*
X87818195Y-90099023D01*
X87794407Y-89945838D01*
X87766223Y-89764347D01*
X87765014Y-89753445D01*
X87755909Y-89617544D01*
X87753782Y-89585806D01*
X87753500Y-89577383D01*
X87753500Y-89396591D01*
X87753849Y-89387226D01*
X87759754Y-89307999D01*
X87767431Y-89205003D01*
X87768645Y-89194587D01*
X87768988Y-89192434D01*
X87797371Y-89013962D01*
X87799740Y-89002519D01*
X87803128Y-88989283D01*
X87845034Y-88825530D01*
X87848838Y-88813293D01*
X87911906Y-88641751D01*
X87917467Y-88628888D01*
X88000153Y-88463519D01*
X88007557Y-88450664D01*
X88112322Y-88291267D01*
X88121584Y-88278900D01*
X88252000Y-88125367D01*
X88262822Y-88114119D01*
X88329420Y-88052982D01*
X88435901Y-87955232D01*
X88442544Y-87949548D01*
X90816693Y-86056677D01*
X90817255Y-86056231D01*
X92215989Y-84954246D01*
X92233313Y-84942778D01*
X92243456Y-84937208D01*
X92243459Y-84937206D01*
X92251323Y-84932887D01*
X92278006Y-84906135D01*
X92282405Y-84901932D01*
X92282506Y-84901840D01*
X92286032Y-84899062D01*
X92305820Y-84878294D01*
X92307813Y-84876250D01*
X92347744Y-84836217D01*
X92347746Y-84836214D01*
X92354084Y-84829860D01*
X92356917Y-84824670D01*
X92360993Y-84820392D01*
X92391064Y-84762175D01*
X92392408Y-84759645D01*
X92419496Y-84710014D01*
X92419497Y-84710011D01*
X92423798Y-84702131D01*
X92425059Y-84696360D01*
X92427773Y-84691106D01*
X92429488Y-84682297D01*
X92429491Y-84682289D01*
X92440301Y-84626768D01*
X92440882Y-84623952D01*
X92452946Y-84568742D01*
X92452946Y-84568738D01*
X92454862Y-84559971D01*
X92454452Y-84554076D01*
X92455582Y-84548274D01*
X92449544Y-84482973D01*
X92449315Y-84480144D01*
X92445398Y-84423766D01*
X92444776Y-84414807D01*
X92442728Y-84409264D01*
X92442184Y-84403377D01*
X92431453Y-84376249D01*
X92418089Y-84342464D01*
X92417061Y-84339778D01*
X92404612Y-84306078D01*
X92394354Y-84278307D01*
X92390832Y-84273561D01*
X92388658Y-84268064D01*
X92348414Y-84216336D01*
X92346675Y-84214047D01*
X92330632Y-84192426D01*
X92327732Y-84188517D01*
X92324494Y-84185327D01*
X92320716Y-84180735D01*
X92304815Y-84160296D01*
X92299306Y-84153215D01*
X92279456Y-84138890D01*
X92264768Y-84126478D01*
X91256822Y-83133347D01*
X91247377Y-83122941D01*
X91223630Y-83093647D01*
X91216250Y-83088543D01*
X91216248Y-83088541D01*
X91201246Y-83078166D01*
X91171755Y-83057769D01*
X91168695Y-83055583D01*
X91117923Y-83018115D01*
X91110471Y-83015384D01*
X91103950Y-83010874D01*
X91071496Y-83000097D01*
X91044148Y-82991016D01*
X91040502Y-82989743D01*
X90989719Y-82971133D01*
X90989717Y-82971132D01*
X90981294Y-82968046D01*
X90973378Y-82967517D01*
X90965850Y-82965017D01*
X90956881Y-82964693D01*
X90902846Y-82962741D01*
X90898988Y-82962542D01*
X90853406Y-82959494D01*
X90836103Y-82958337D01*
X90828358Y-82960050D01*
X90820431Y-82959764D01*
X90759307Y-82975266D01*
X90755586Y-82976149D01*
X90702788Y-82987829D01*
X90702787Y-82987830D01*
X90694024Y-82989768D01*
X90687073Y-82993585D01*
X90679381Y-82995536D01*
X90625047Y-83027582D01*
X90621722Y-83029474D01*
X90574342Y-83055493D01*
X90574341Y-83055494D01*
X90566476Y-83059813D01*
X90560137Y-83066168D01*
X90560136Y-83066169D01*
X90537067Y-83089297D01*
X90527801Y-83097707D01*
X90488702Y-83129802D01*
X90481463Y-83135320D01*
X90307889Y-83257937D01*
X90290870Y-83269960D01*
X90280459Y-83276576D01*
X89958142Y-83459881D01*
X89948390Y-83464878D01*
X89759613Y-83551478D01*
X89751547Y-83554844D01*
X89531836Y-83637684D01*
X89522675Y-83640743D01*
X89281643Y-83711068D01*
X89271230Y-83713631D01*
X89010830Y-83766074D01*
X88999269Y-83767848D01*
X88721065Y-83797365D01*
X88708411Y-83798066D01*
X88588174Y-83798665D01*
X88413135Y-83799537D01*
X88399709Y-83798887D01*
X88160764Y-83774491D01*
X88087519Y-83767013D01*
X88073684Y-83764817D01*
X87743990Y-83693507D01*
X87730373Y-83689752D01*
X87382359Y-83572406D01*
X87369363Y-83567202D01*
X87139296Y-83459881D01*
X87004645Y-83397069D01*
X86991964Y-83390246D01*
X86793380Y-83268269D01*
X86640774Y-83174533D01*
X86628420Y-83165884D01*
X86586579Y-83132692D01*
X86314754Y-82917059D01*
X86303964Y-82907443D01*
X86023132Y-82626612D01*
X86014050Y-82616492D01*
X85764719Y-82306542D01*
X85757288Y-82296290D01*
X85538708Y-81960400D01*
X85532771Y-81950275D01*
X85411157Y-81718777D01*
X88015777Y-81718777D01*
X88025074Y-81730793D01*
X88068069Y-81760898D01*
X88077555Y-81766376D01*
X88268993Y-81855645D01*
X88279285Y-81859391D01*
X88483309Y-81914059D01*
X88494104Y-81915962D01*
X88704525Y-81934372D01*
X88715475Y-81934372D01*
X88925896Y-81915962D01*
X88936691Y-81914059D01*
X89140715Y-81859391D01*
X89151007Y-81855645D01*
X89342445Y-81766376D01*
X89351931Y-81760898D01*
X89395764Y-81730207D01*
X89404139Y-81719729D01*
X89397071Y-81706281D01*
X88722812Y-81032022D01*
X88708868Y-81024408D01*
X88707035Y-81024539D01*
X88700420Y-81028790D01*
X88022207Y-81707003D01*
X88015777Y-81718777D01*
X85411157Y-81718777D01*
X85344524Y-81591939D01*
X85339933Y-81582211D01*
X85181684Y-81206080D01*
X85178151Y-81196641D01*
X85049867Y-80807233D01*
X85047271Y-80798245D01*
X85014221Y-80665475D01*
X87435628Y-80665475D01*
X87454038Y-80875896D01*
X87455941Y-80886691D01*
X87510609Y-81090715D01*
X87514355Y-81101007D01*
X87603623Y-81292441D01*
X87609103Y-81301932D01*
X87639794Y-81345765D01*
X87650271Y-81354140D01*
X87663718Y-81347072D01*
X88337978Y-80672812D01*
X88344356Y-80661132D01*
X89074408Y-80661132D01*
X89074539Y-80662965D01*
X89078790Y-80669580D01*
X89757003Y-81347793D01*
X89768777Y-81354223D01*
X89780793Y-81344926D01*
X89810897Y-81301932D01*
X89816377Y-81292441D01*
X89905645Y-81101007D01*
X89909391Y-81090715D01*
X89964059Y-80886691D01*
X89965962Y-80875896D01*
X89984372Y-80665475D01*
X89984372Y-80654525D01*
X89965962Y-80444104D01*
X89964059Y-80433309D01*
X89909391Y-80229285D01*
X89905645Y-80218993D01*
X89816377Y-80027559D01*
X89810897Y-80018068D01*
X89780206Y-79974235D01*
X89769729Y-79965860D01*
X89756282Y-79972928D01*
X89082022Y-80647188D01*
X89074408Y-80661132D01*
X88344356Y-80661132D01*
X88345592Y-80658868D01*
X88345461Y-80657035D01*
X88341210Y-80650420D01*
X87662997Y-79972207D01*
X87651223Y-79965777D01*
X87639207Y-79975074D01*
X87609103Y-80018068D01*
X87603623Y-80027559D01*
X87514355Y-80218993D01*
X87510609Y-80229285D01*
X87455941Y-80433309D01*
X87454038Y-80444104D01*
X87435628Y-80654525D01*
X87435628Y-80665475D01*
X85014221Y-80665475D01*
X84959116Y-80444104D01*
X84948264Y-80400509D01*
X84946423Y-80391813D01*
X84928810Y-80291210D01*
X84876290Y-79991234D01*
X84875105Y-79982798D01*
X84874059Y-79972928D01*
X84857087Y-79812882D01*
X84832893Y-79584719D01*
X84832287Y-79576355D01*
X84817042Y-79186382D01*
X84816995Y-79177945D01*
X84825238Y-78882593D01*
X84827497Y-78801674D01*
X84828032Y-78793074D01*
X84830176Y-78770905D01*
X84862508Y-78436590D01*
X84863727Y-78427479D01*
X84920315Y-78097028D01*
X84922415Y-78087162D01*
X84999362Y-77785656D01*
X85002229Y-77776039D01*
X85091069Y-77516450D01*
X85099721Y-77491170D01*
X85102832Y-77483015D01*
X85220282Y-77204463D01*
X85223708Y-77197023D01*
X85244097Y-77156286D01*
X85358571Y-76927565D01*
X85362148Y-76920923D01*
X85362603Y-76920137D01*
X85512028Y-76661570D01*
X85515782Y-76655480D01*
X85678175Y-76408045D01*
X85682033Y-76402497D01*
X85854665Y-76167922D01*
X85858597Y-76162854D01*
X86038804Y-75942432D01*
X86042853Y-75937721D01*
X86222861Y-75738451D01*
X86229094Y-75732026D01*
X86607133Y-75369047D01*
X86616433Y-75360953D01*
X86853547Y-75174178D01*
X86970902Y-75081738D01*
X86982332Y-75073720D01*
X86984684Y-75072258D01*
X87299033Y-74876795D01*
X87310750Y-74870345D01*
X87423190Y-74816018D01*
X87433937Y-74811427D01*
X87526587Y-74776842D01*
X87540044Y-74772661D01*
X87806510Y-74705943D01*
X87818609Y-74703537D01*
X88111037Y-74660161D01*
X88158391Y-74653137D01*
X88170870Y-74651916D01*
X88568453Y-74632938D01*
X88578581Y-74632862D01*
X88775640Y-74639309D01*
X88783155Y-74639780D01*
X88992183Y-74659165D01*
X89000148Y-74660161D01*
X89106393Y-74676892D01*
X89210451Y-74693279D01*
X89219051Y-74694942D01*
X89428281Y-74743030D01*
X89437441Y-74745502D01*
X89530317Y-74774375D01*
X89643830Y-74809664D01*
X89653452Y-74813089D01*
X89855027Y-74894183D01*
X89865110Y-74898765D01*
X89947699Y-74940763D01*
X90060335Y-74998041D01*
X90070517Y-75003829D01*
X90258815Y-75122783D01*
X90268900Y-75129868D01*
X90330596Y-75177890D01*
X90449227Y-75270228D01*
X90458841Y-75278522D01*
X90638789Y-75450319D01*
X90644733Y-75456392D01*
X94425904Y-79590348D01*
X94430774Y-79596305D01*
X94433827Y-79602063D01*
X94478642Y-79648095D01*
X94481272Y-79650882D01*
X94498370Y-79669575D01*
X94501834Y-79672420D01*
X94505086Y-79675504D01*
X94504988Y-79675607D01*
X94509170Y-79679452D01*
X94535334Y-79706326D01*
X94550703Y-79715010D01*
X94568693Y-79727344D01*
X94582337Y-79738552D01*
X94590593Y-79742074D01*
X94590595Y-79742075D01*
X94616826Y-79753264D01*
X94629372Y-79759460D01*
X94662025Y-79777910D01*
X94670765Y-79779955D01*
X94670766Y-79779955D01*
X94679213Y-79781931D01*
X94699951Y-79788723D01*
X94716182Y-79795647D01*
X94736118Y-79798025D01*
X94753417Y-79800089D01*
X94767185Y-79802513D01*
X94803712Y-79811058D01*
X94821345Y-79810093D01*
X94843149Y-79810792D01*
X94860673Y-79812882D01*
X94897663Y-79806693D01*
X94911570Y-79805154D01*
X94949010Y-79803105D01*
X94957476Y-79800118D01*
X94957478Y-79800118D01*
X94965658Y-79797233D01*
X94986776Y-79791785D01*
X94995336Y-79790352D01*
X94995338Y-79790351D01*
X95004192Y-79788870D01*
X95022636Y-79779955D01*
X95037959Y-79772549D01*
X95050872Y-79767170D01*
X95072726Y-79759460D01*
X95086236Y-79754694D01*
X95093522Y-79749452D01*
X95093528Y-79749449D01*
X95100572Y-79744381D01*
X95119314Y-79733224D01*
X95127123Y-79729449D01*
X95127125Y-79729448D01*
X95135205Y-79725542D01*
X95141862Y-79719527D01*
X95141867Y-79719524D01*
X95163036Y-79700398D01*
X95173912Y-79691617D01*
X95204357Y-79669713D01*
X95209879Y-79662637D01*
X95209882Y-79662634D01*
X95215219Y-79655795D01*
X95230075Y-79639827D01*
X95236515Y-79634008D01*
X95243176Y-79627990D01*
X95262825Y-79596053D01*
X95270808Y-79584560D01*
X95288360Y-79562069D01*
X95288361Y-79562067D01*
X95293880Y-79554995D01*
X95300397Y-79538591D01*
X95310174Y-79519094D01*
X95319428Y-79504053D01*
X95329324Y-79467885D01*
X95332547Y-79458245D01*
X95333365Y-79455609D01*
X95335161Y-79451089D01*
X95340684Y-79426815D01*
X95342011Y-79421518D01*
X95355461Y-79372358D01*
X95357831Y-79363697D01*
X95357677Y-79354828D01*
X95359782Y-79342872D01*
X95386717Y-79224488D01*
X97306699Y-70785625D01*
X98715272Y-64655375D01*
X98719042Y-64639272D01*
X100810788Y-64639272D01*
X100811275Y-64644117D01*
X100811569Y-64647047D01*
X100812200Y-64659638D01*
X100812200Y-64664357D01*
X100812836Y-64668797D01*
X100814023Y-64677089D01*
X100815183Y-64689639D01*
X100815675Y-64701303D01*
X100817569Y-64706892D01*
X100817607Y-64707161D01*
X100826895Y-64799619D01*
X100826993Y-64800598D01*
X100827623Y-64812830D01*
X100827625Y-64813607D01*
X100826378Y-64822498D01*
X100827676Y-64831379D01*
X100827676Y-64831381D01*
X100834966Y-64881258D01*
X100835660Y-64886887D01*
X100837789Y-64908085D01*
X100838866Y-64912442D01*
X100839003Y-64912995D01*
X100841360Y-64925009D01*
X100842547Y-64933129D01*
X100848668Y-64952944D01*
X100850589Y-64959859D01*
X100855636Y-64980275D01*
X100859961Y-64997769D01*
X100863868Y-65013575D01*
X100868379Y-65021331D01*
X100871749Y-65029656D01*
X100871105Y-65029917D01*
X100875632Y-65040243D01*
X100888675Y-65082468D01*
X100891587Y-65093887D01*
X100892088Y-65102574D01*
X100895099Y-65111030D01*
X100912302Y-65159345D01*
X100913988Y-65164419D01*
X100920492Y-65185475D01*
X100922415Y-65189540D01*
X100922611Y-65190044D01*
X100927110Y-65200931D01*
X100929592Y-65207902D01*
X100931913Y-65212185D01*
X100931913Y-65212186D01*
X100939834Y-65226806D01*
X100942946Y-65232945D01*
X100966957Y-65283706D01*
X100972917Y-65290416D01*
X100977531Y-65297396D01*
X100983203Y-65306851D01*
X101002596Y-65342644D01*
X101006953Y-65351791D01*
X101008906Y-65359434D01*
X101040381Y-65412571D01*
X101042725Y-65416708D01*
X101053823Y-65437192D01*
X101056496Y-65440791D01*
X101058785Y-65444381D01*
X101062797Y-65450416D01*
X101065886Y-65455631D01*
X101068978Y-65459383D01*
X101068982Y-65459389D01*
X101080373Y-65473213D01*
X101084290Y-65478218D01*
X101113260Y-65517228D01*
X101118610Y-65524432D01*
X101125766Y-65529844D01*
X101129238Y-65533347D01*
X101136983Y-65541912D01*
X101162379Y-65572732D01*
X101168302Y-65580738D01*
X101171643Y-65587788D01*
X101212785Y-65634041D01*
X101215829Y-65637596D01*
X101230751Y-65655705D01*
X101234067Y-65658728D01*
X101237156Y-65661976D01*
X101237151Y-65661981D01*
X101242026Y-65666916D01*
X101242714Y-65667690D01*
X101242723Y-65667699D01*
X101245951Y-65671328D01*
X101251806Y-65676154D01*
X101263637Y-65685906D01*
X101268393Y-65690030D01*
X101304413Y-65722876D01*
X101304415Y-65722877D01*
X101311045Y-65728923D01*
X101319109Y-65732866D01*
X101322865Y-65735420D01*
X101332167Y-65742392D01*
X101363049Y-65767847D01*
X101370612Y-65774769D01*
X101375330Y-65781167D01*
X101382470Y-65786604D01*
X101382475Y-65786609D01*
X101424331Y-65818481D01*
X101428134Y-65821494D01*
X101446039Y-65836252D01*
X101449874Y-65838588D01*
X101453101Y-65840883D01*
X101459384Y-65845172D01*
X101464282Y-65848902D01*
X101484233Y-65859707D01*
X101489763Y-65862886D01*
X101530514Y-65887709D01*
X101538842Y-65892782D01*
X101547513Y-65895113D01*
X101552264Y-65897149D01*
X101562639Y-65902169D01*
X101598788Y-65921747D01*
X101608731Y-65927794D01*
X101615112Y-65933605D01*
X101669367Y-65960096D01*
X101674083Y-65962523D01*
X101683444Y-65967592D01*
X101693559Y-65973070D01*
X101697766Y-65974625D01*
X101698498Y-65974957D01*
X101709009Y-65979453D01*
X101715581Y-65982661D01*
X101736235Y-65989045D01*
X101742693Y-65991235D01*
X101787064Y-66007638D01*
X101787067Y-66007639D01*
X101795483Y-66010750D01*
X101804431Y-66011374D01*
X101812333Y-66013074D01*
X101823034Y-66015872D01*
X101864700Y-66028750D01*
X101876140Y-66032902D01*
X101877181Y-66033338D01*
X101884884Y-66037942D01*
X101893572Y-66040200D01*
X101942197Y-66052838D01*
X101947710Y-66054405D01*
X101963656Y-66059334D01*
X101963661Y-66059335D01*
X101967944Y-66060659D01*
X101972379Y-66061363D01*
X101972378Y-66061363D01*
X101973083Y-66061475D01*
X101985023Y-66063969D01*
X101988383Y-66064843D01*
X101988390Y-66064844D01*
X101993094Y-66066067D01*
X101997935Y-66066552D01*
X101997936Y-66066552D01*
X102002993Y-66067058D01*
X102013580Y-66068119D01*
X102020766Y-66069048D01*
X102075264Y-66077704D01*
X102084167Y-66076568D01*
X102093142Y-66076705D01*
X102093132Y-66077376D01*
X102104496Y-66077225D01*
X102207683Y-66087559D01*
X102214511Y-66088432D01*
X102231904Y-66091140D01*
X102231909Y-66091140D01*
X102236723Y-66091890D01*
X102244630Y-66091890D01*
X102257186Y-66092517D01*
X102257513Y-66092550D01*
X102257518Y-66092550D01*
X102261970Y-66092996D01*
X102285365Y-66092003D01*
X102290709Y-66091890D01*
X112479231Y-66091890D01*
X112486113Y-66092078D01*
X112508546Y-66093305D01*
X112513388Y-66092820D01*
X112513390Y-66092820D01*
X112516415Y-66092517D01*
X112528971Y-66091890D01*
X112533777Y-66091890D01*
X112538206Y-66091256D01*
X112538215Y-66091255D01*
X112556946Y-66088572D01*
X112562252Y-66087926D01*
X112669883Y-66077146D01*
X112682056Y-66076520D01*
X112683179Y-66076517D01*
X112692066Y-66077762D01*
X112725993Y-66072797D01*
X112750674Y-66069186D01*
X112756361Y-66068485D01*
X112772967Y-66066822D01*
X112777421Y-66066376D01*
X112782471Y-66065129D01*
X112794431Y-66062783D01*
X112797882Y-66062278D01*
X112797881Y-66062278D01*
X112802694Y-66061574D01*
X112822363Y-66055494D01*
X112829354Y-66053553D01*
X112842312Y-66050354D01*
X112874205Y-66042480D01*
X112874209Y-66042479D01*
X112882919Y-66040328D01*
X112890679Y-66035817D01*
X112898999Y-66032452D01*
X112899252Y-66033078D01*
X112909663Y-66028513D01*
X112952081Y-66015403D01*
X112963360Y-66012526D01*
X112971980Y-66012031D01*
X113028893Y-65991778D01*
X113033906Y-65990113D01*
X113050768Y-65984902D01*
X113050773Y-65984900D01*
X113055057Y-65983576D01*
X113059107Y-65981659D01*
X113059910Y-65981347D01*
X113070442Y-65976993D01*
X113077315Y-65974547D01*
X113081583Y-65972236D01*
X113081598Y-65972229D01*
X113096331Y-65964250D01*
X113102434Y-65961156D01*
X113145169Y-65940932D01*
X113153279Y-65937094D01*
X113159985Y-65931135D01*
X113166716Y-65926684D01*
X113176202Y-65920993D01*
X113212021Y-65901595D01*
X113221277Y-65897187D01*
X113228980Y-65895217D01*
X113236700Y-65890643D01*
X113281967Y-65863822D01*
X113286190Y-65861429D01*
X113302651Y-65852514D01*
X113302658Y-65852510D01*
X113306592Y-65850379D01*
X113310190Y-65847708D01*
X113313542Y-65845571D01*
X113319884Y-65841355D01*
X113320982Y-65840705D01*
X113320988Y-65840701D01*
X113325170Y-65838223D01*
X113342683Y-65823788D01*
X113347718Y-65819849D01*
X113386635Y-65790958D01*
X113393843Y-65785607D01*
X113399258Y-65778450D01*
X113402929Y-65774812D01*
X113411474Y-65767086D01*
X113442290Y-65741685D01*
X113450301Y-65735757D01*
X113457348Y-65732417D01*
X113464051Y-65726453D01*
X113464057Y-65726449D01*
X113503581Y-65691282D01*
X113507197Y-65688185D01*
X113521793Y-65676154D01*
X113525257Y-65673299D01*
X113528283Y-65669980D01*
X113531521Y-65666899D01*
X113531526Y-65666904D01*
X113536465Y-65662024D01*
X113537238Y-65661336D01*
X113537241Y-65661333D01*
X113540878Y-65658097D01*
X113555465Y-65640394D01*
X113559581Y-65635647D01*
X113592414Y-65599631D01*
X113592415Y-65599629D01*
X113598464Y-65592994D01*
X113602407Y-65584929D01*
X113604965Y-65581165D01*
X113611922Y-65571880D01*
X113637365Y-65541005D01*
X113644197Y-65533540D01*
X113650549Y-65528857D01*
X113660470Y-65515834D01*
X113670219Y-65503035D01*
X113687952Y-65479757D01*
X113690929Y-65476000D01*
X113702891Y-65461484D01*
X113705743Y-65458023D01*
X113708077Y-65454191D01*
X113710561Y-65450697D01*
X113714627Y-65444740D01*
X113718301Y-65439917D01*
X113729164Y-65419866D01*
X113732305Y-65414402D01*
X113762260Y-65365212D01*
X113764591Y-65356536D01*
X113766521Y-65352031D01*
X113771557Y-65341622D01*
X113772779Y-65339368D01*
X113791178Y-65305408D01*
X113797296Y-65295349D01*
X113803154Y-65288915D01*
X113829587Y-65234756D01*
X113832030Y-65230010D01*
X113835484Y-65223634D01*
X113842531Y-65210627D01*
X113844091Y-65206410D01*
X113844319Y-65205906D01*
X113848945Y-65195092D01*
X113850055Y-65192817D01*
X113852193Y-65188437D01*
X113858538Y-65167895D01*
X113860751Y-65161370D01*
X113877114Y-65117134D01*
X113880230Y-65108710D01*
X113880856Y-65099751D01*
X113882618Y-65091569D01*
X113885408Y-65080904D01*
X113898255Y-65039311D01*
X113902433Y-65027800D01*
X113902736Y-65027076D01*
X113907345Y-65019372D01*
X113922303Y-64961888D01*
X113923854Y-64956433D01*
X113923873Y-64956373D01*
X113930138Y-64936091D01*
X113930930Y-64931094D01*
X113933432Y-64919118D01*
X113935501Y-64911170D01*
X113937572Y-64890554D01*
X113938497Y-64883407D01*
X113945758Y-64837635D01*
X113947165Y-64828768D01*
X113946026Y-64819862D01*
X113946162Y-64810888D01*
X113946861Y-64810899D01*
X113946705Y-64799624D01*
X113955654Y-64710536D01*
X113955654Y-64710535D01*
X113958047Y-64710775D01*
X113957829Y-64707518D01*
X113956738Y-64707459D01*
X113957225Y-64698513D01*
X113957225Y-64698510D01*
X113957236Y-64698303D01*
X113958550Y-64685760D01*
X113960650Y-64672271D01*
X113961400Y-64667457D01*
X113961400Y-64659638D01*
X113962031Y-64647045D01*
X113962054Y-64646817D01*
X113962054Y-64646816D01*
X113962502Y-64642356D01*
X113961788Y-64625420D01*
X113961862Y-64613272D01*
X113962812Y-64595818D01*
X113962031Y-64588043D01*
X113961400Y-64575450D01*
X113961400Y-64570733D01*
X113959577Y-64558001D01*
X113958417Y-64545451D01*
X113958389Y-64544790D01*
X113957925Y-64533787D01*
X113956031Y-64528198D01*
X113955993Y-64527929D01*
X113954316Y-64511234D01*
X113946607Y-64434482D01*
X113945977Y-64422259D01*
X113945975Y-64421482D01*
X113947222Y-64412591D01*
X113945010Y-64397455D01*
X113938634Y-64353829D01*
X113937940Y-64348202D01*
X113937572Y-64344536D01*
X113935811Y-64327005D01*
X113934596Y-64322089D01*
X113932240Y-64310081D01*
X113931757Y-64306775D01*
X113931756Y-64306771D01*
X113931053Y-64301961D01*
X113927801Y-64291432D01*
X113924938Y-64282161D01*
X113923008Y-64275216D01*
X113911886Y-64230228D01*
X113909732Y-64221515D01*
X113905219Y-64213757D01*
X113901851Y-64205435D01*
X113902496Y-64205174D01*
X113897967Y-64194845D01*
X113884924Y-64152618D01*
X113882013Y-64141205D01*
X113881512Y-64132517D01*
X113876329Y-64117959D01*
X113861301Y-64075755D01*
X113859613Y-64070675D01*
X113855998Y-64058971D01*
X113853108Y-64049614D01*
X113851186Y-64045550D01*
X113850999Y-64045070D01*
X113846491Y-64034160D01*
X113845643Y-64031780D01*
X113844008Y-64027188D01*
X113841693Y-64022915D01*
X113841688Y-64022904D01*
X113833766Y-64008283D01*
X113830651Y-64002139D01*
X113814831Y-63968693D01*
X113806643Y-63951384D01*
X113800684Y-63944675D01*
X113796066Y-63937689D01*
X113790397Y-63928238D01*
X113782549Y-63913754D01*
X113771003Y-63892443D01*
X113766648Y-63883300D01*
X113764694Y-63875656D01*
X113733244Y-63822559D01*
X113730871Y-63818372D01*
X113729151Y-63815196D01*
X113719778Y-63797898D01*
X113717108Y-63794302D01*
X113714801Y-63790684D01*
X113710790Y-63784652D01*
X113710636Y-63784392D01*
X113707714Y-63779459D01*
X113704621Y-63775706D01*
X113704615Y-63775697D01*
X113693229Y-63761880D01*
X113689311Y-63756874D01*
X113660343Y-63717867D01*
X113654990Y-63710659D01*
X113647829Y-63705242D01*
X113644368Y-63701751D01*
X113636616Y-63693176D01*
X113611226Y-63662364D01*
X113605307Y-63654366D01*
X113601969Y-63647320D01*
X113560831Y-63601068D01*
X113557767Y-63597489D01*
X113542849Y-63579385D01*
X113539532Y-63576361D01*
X113536444Y-63573113D01*
X113536449Y-63573108D01*
X113531581Y-63568180D01*
X113530895Y-63567409D01*
X113527665Y-63563777D01*
X113509952Y-63549176D01*
X113505211Y-63545065D01*
X113503831Y-63543806D01*
X113488818Y-63530116D01*
X113469187Y-63512215D01*
X113469185Y-63512214D01*
X113462554Y-63506167D01*
X113454492Y-63502225D01*
X113450764Y-63499690D01*
X113441461Y-63492716D01*
X113410574Y-63467255D01*
X113402984Y-63460308D01*
X113398253Y-63453895D01*
X113349244Y-63416580D01*
X113345465Y-63413586D01*
X113327579Y-63398841D01*
X113323751Y-63396509D01*
X113320604Y-63394270D01*
X113314224Y-63389915D01*
X113309297Y-63386164D01*
X113289348Y-63375362D01*
X113283835Y-63372192D01*
X113234778Y-63342307D01*
X113226108Y-63339976D01*
X113221295Y-63337913D01*
X113210933Y-63332900D01*
X113174790Y-63313328D01*
X113164864Y-63307292D01*
X113158488Y-63301485D01*
X113150421Y-63297546D01*
X113150418Y-63297544D01*
X113104217Y-63274986D01*
X113099523Y-63272571D01*
X113080019Y-63262010D01*
X113075820Y-63260458D01*
X113075065Y-63260116D01*
X113064570Y-63255628D01*
X113058019Y-63252429D01*
X113037355Y-63246042D01*
X113030879Y-63243846D01*
X112986513Y-63227447D01*
X112986511Y-63227447D01*
X112978093Y-63224335D01*
X112969140Y-63223711D01*
X112961298Y-63222025D01*
X112950584Y-63219223D01*
X112908908Y-63206343D01*
X112897440Y-63202181D01*
X112896447Y-63201765D01*
X112888741Y-63197158D01*
X112831395Y-63182250D01*
X112825890Y-63180684D01*
X112809942Y-63175755D01*
X112809934Y-63175753D01*
X112805656Y-63174431D01*
X112801234Y-63173729D01*
X112801227Y-63173727D01*
X112800522Y-63173615D01*
X112788595Y-63171124D01*
X112780532Y-63169028D01*
X112775695Y-63168543D01*
X112775693Y-63168543D01*
X112760044Y-63166975D01*
X112752845Y-63166043D01*
X112707203Y-63158794D01*
X112707201Y-63158794D01*
X112698336Y-63157386D01*
X112689432Y-63158523D01*
X112680455Y-63158386D01*
X112680465Y-63157706D01*
X112669113Y-63157863D01*
X112565898Y-63147519D01*
X112559114Y-63146652D01*
X112536877Y-63143190D01*
X112528989Y-63143190D01*
X112516426Y-63142562D01*
X112516119Y-63142531D01*
X112516116Y-63142531D01*
X112511656Y-63142084D01*
X112500382Y-63142562D01*
X112488234Y-63143077D01*
X112482897Y-63143190D01*
X110041559Y-63143190D01*
X109973438Y-63123188D01*
X109926945Y-63069532D01*
X109918300Y-63043326D01*
X109913236Y-63019444D01*
X109912719Y-63016880D01*
X109907175Y-62987766D01*
X109907174Y-62987761D01*
X109906266Y-62982995D01*
X109904632Y-62978414D01*
X109904468Y-62977810D01*
X109904291Y-62977259D01*
X109903883Y-62975338D01*
X109901579Y-62969049D01*
X109890831Y-62939715D01*
X109890526Y-62938873D01*
X109847664Y-62818716D01*
X109846607Y-62815627D01*
X109836542Y-62784901D01*
X109834334Y-62780565D01*
X109834162Y-62780152D01*
X109833128Y-62777970D01*
X109832113Y-62775123D01*
X109816008Y-62744554D01*
X109815253Y-62743094D01*
X109756901Y-62628510D01*
X109754987Y-62624585D01*
X109744686Y-62602495D01*
X109744683Y-62602490D01*
X109742628Y-62598083D01*
X109739917Y-62594041D01*
X109739681Y-62593623D01*
X109737203Y-62589727D01*
X109736867Y-62589170D01*
X109734830Y-62585169D01*
X109717183Y-62560095D01*
X109715643Y-62557853D01*
X109643331Y-62450049D01*
X109640567Y-62445742D01*
X109628898Y-62426717D01*
X109628895Y-62426713D01*
X109626351Y-62422565D01*
X109623202Y-62418861D01*
X109620984Y-62415802D01*
X109620645Y-62415355D01*
X109620513Y-62415458D01*
X109617753Y-62411917D01*
X109615261Y-62408202D01*
X109596320Y-62387167D01*
X109594000Y-62384517D01*
X109508687Y-62284182D01*
X109504881Y-62279478D01*
X109489920Y-62260047D01*
X109485602Y-62255941D01*
X109480630Y-62250685D01*
X109480627Y-62250688D01*
X109477489Y-62247490D01*
X109474585Y-62244074D01*
X109455437Y-62227147D01*
X109452106Y-62224092D01*
X109355081Y-62131842D01*
X109350213Y-62126952D01*
X109338195Y-62114198D01*
X109338187Y-62114190D01*
X109334855Y-62110655D01*
X109331017Y-62107673D01*
X109331013Y-62107669D01*
X109328552Y-62105757D01*
X109319053Y-62097586D01*
X109315504Y-62094212D01*
X109296464Y-62080678D01*
X109292172Y-62077487D01*
X109183823Y-61993294D01*
X109177911Y-61988404D01*
X109162621Y-61974948D01*
X109158515Y-61972332D01*
X109154225Y-61969599D01*
X109144622Y-61962832D01*
X109142734Y-61961365D01*
X109142733Y-61961364D01*
X109139200Y-61958619D01*
X109120740Y-61948090D01*
X109115494Y-61944925D01*
X108998077Y-61870124D01*
X108991038Y-61865297D01*
X108980338Y-61857413D01*
X108980332Y-61857409D01*
X108976420Y-61854527D01*
X108965705Y-61848941D01*
X108956246Y-61843476D01*
X108952461Y-61841064D01*
X108952454Y-61841060D01*
X108948677Y-61838654D01*
X108944594Y-61836806D01*
X108944588Y-61836803D01*
X108931329Y-61830802D01*
X108925038Y-61827742D01*
X108884981Y-61806861D01*
X108790610Y-61757666D01*
X108787008Y-61755711D01*
X108761098Y-61741088D01*
X108756540Y-61739376D01*
X108756127Y-61739183D01*
X108751789Y-61737429D01*
X108747879Y-61735391D01*
X108718460Y-61725041D01*
X108715965Y-61724133D01*
X108456522Y-61626667D01*
X108380846Y-61598238D01*
X108380364Y-61598055D01*
X108338952Y-61582223D01*
X108334201Y-61581207D01*
X108334198Y-61581206D01*
X108308373Y-61575683D01*
X108307584Y-61575511D01*
X108236395Y-61559808D01*
X108236396Y-61559808D01*
X108232388Y-61558924D01*
X108230932Y-61559022D01*
X108229544Y-61558822D01*
X107926258Y-61493954D01*
X107925097Y-61493700D01*
X107886381Y-61484992D01*
X107881521Y-61484667D01*
X107871309Y-61483984D01*
X107871098Y-61483970D01*
X107776512Y-61477484D01*
X107776511Y-61477484D01*
X107775169Y-61477392D01*
X107774719Y-61477490D01*
X107774223Y-61477492D01*
X107437517Y-61454978D01*
X107436218Y-61454884D01*
X107397294Y-61451831D01*
X107394100Y-61452075D01*
X107393997Y-61452068D01*
X107285641Y-61460262D01*
X107285409Y-61460349D01*
X107285092Y-61460396D01*
X106973227Y-61484204D01*
X106963636Y-61484570D01*
X106951323Y-61484570D01*
X106939878Y-61486209D01*
X106930304Y-61487207D01*
X106915619Y-61488169D01*
X106910861Y-61489233D01*
X106910858Y-61489233D01*
X106904880Y-61490569D01*
X106904701Y-61490609D01*
X106901286Y-61491367D01*
X106891845Y-61493088D01*
X106852641Y-61498702D01*
X106852638Y-61498703D01*
X106843755Y-61499975D01*
X106835587Y-61503689D01*
X106829085Y-61505590D01*
X106813011Y-61510963D01*
X106806677Y-61512369D01*
X106806322Y-61512564D01*
X106805889Y-61512693D01*
X106506127Y-61579691D01*
X106505612Y-61579805D01*
X106460927Y-61589557D01*
X106439118Y-61597999D01*
X106431486Y-61600953D01*
X106430641Y-61601277D01*
X106363621Y-61626667D01*
X106363615Y-61626670D01*
X106359378Y-61628275D01*
X106358079Y-61629255D01*
X106356664Y-61629916D01*
X106147565Y-61710856D01*
X106146245Y-61711266D01*
X106144816Y-61711397D01*
X106141061Y-61712878D01*
X106141057Y-61712879D01*
X106072876Y-61739765D01*
X106072140Y-61740052D01*
X106048907Y-61749045D01*
X106048889Y-61749053D01*
X106046101Y-61750132D01*
X106044954Y-61750776D01*
X106040805Y-61752412D01*
X106013548Y-61768385D01*
X106011592Y-61769506D01*
X105959179Y-61798931D01*
X105959174Y-61798935D01*
X105951347Y-61803329D01*
X105948565Y-61806171D01*
X105945157Y-61808462D01*
X105839934Y-61870124D01*
X105714806Y-61943450D01*
X105712388Y-61944831D01*
X105687022Y-61958952D01*
X105687010Y-61958960D01*
X105682767Y-61961322D01*
X105678931Y-61964314D01*
X105678456Y-61964629D01*
X105677617Y-61965243D01*
X105675687Y-61966374D01*
X105664917Y-61974948D01*
X105646830Y-61989346D01*
X105645849Y-61990119D01*
X105536077Y-62075742D01*
X105530172Y-62080078D01*
X105512656Y-62092169D01*
X105509125Y-62095516D01*
X105506079Y-62098403D01*
X105496900Y-62106301D01*
X105495741Y-62107205D01*
X105495737Y-62107209D01*
X105492198Y-62109969D01*
X105489087Y-62113202D01*
X105489084Y-62113205D01*
X105476822Y-62125950D01*
X105472704Y-62130038D01*
X105379842Y-62218057D01*
X105375078Y-62222348D01*
X105360749Y-62234608D01*
X105357049Y-62237774D01*
X105353882Y-62241469D01*
X105353879Y-62241472D01*
X105352673Y-62242879D01*
X105345885Y-62250015D01*
X105344310Y-62251736D01*
X105341058Y-62254819D01*
X105338270Y-62258338D01*
X105338267Y-62258342D01*
X105325735Y-62274163D01*
X105322633Y-62277928D01*
X105239630Y-62374767D01*
X105235997Y-62378825D01*
X105218044Y-62398025D01*
X105215310Y-62402045D01*
X105214347Y-62403248D01*
X105211847Y-62406516D01*
X105211940Y-62406585D01*
X105209276Y-62410182D01*
X105206355Y-62413589D01*
X105203950Y-62417371D01*
X105203945Y-62417378D01*
X105191659Y-62436700D01*
X105189512Y-62439964D01*
X105117422Y-62545930D01*
X105114953Y-62549429D01*
X105100434Y-62569284D01*
X105100428Y-62569294D01*
X105097554Y-62573224D01*
X105095317Y-62577554D01*
X105095064Y-62577963D01*
X105092782Y-62582125D01*
X105092684Y-62582294D01*
X105090164Y-62585997D01*
X105086432Y-62593623D01*
X105076595Y-62613723D01*
X105075361Y-62616176D01*
X105016012Y-62731037D01*
X105014461Y-62733945D01*
X104998875Y-62762267D01*
X104997212Y-62766843D01*
X104997034Y-62767236D01*
X104996134Y-62769508D01*
X104994742Y-62772201D01*
X104988719Y-62789520D01*
X104983453Y-62804664D01*
X104982865Y-62806316D01*
X104938299Y-62928937D01*
X104937494Y-62931091D01*
X104924758Y-62964236D01*
X104923733Y-62968990D01*
X104923693Y-62969123D01*
X104923096Y-62970766D01*
X104921622Y-62977810D01*
X104914760Y-63010588D01*
X104914643Y-63011140D01*
X104907703Y-63043326D01*
X104907611Y-63043752D01*
X104873698Y-63106125D01*
X104811447Y-63140262D01*
X104784442Y-63143190D01*
X102294359Y-63143190D01*
X102287485Y-63143002D01*
X102279432Y-63142562D01*
X102265029Y-63141775D01*
X102257485Y-63142531D01*
X102257176Y-63142562D01*
X102244612Y-63143190D01*
X102239823Y-63143190D01*
X102235392Y-63143825D01*
X102235387Y-63143825D01*
X102216635Y-63146511D01*
X102211334Y-63147156D01*
X102103688Y-63157943D01*
X102091510Y-63158570D01*
X102090421Y-63158573D01*
X102081533Y-63157328D01*
X102022892Y-63165909D01*
X102017229Y-63166607D01*
X102017166Y-63166613D01*
X102000617Y-63168271D01*
X102000609Y-63168272D01*
X101996153Y-63168719D01*
X101991802Y-63169794D01*
X101991794Y-63169795D01*
X101991132Y-63169959D01*
X101979154Y-63172309D01*
X101975728Y-63172810D01*
X101975723Y-63172811D01*
X101970905Y-63173516D01*
X101960268Y-63176803D01*
X101951218Y-63179600D01*
X101944227Y-63181542D01*
X101899370Y-63192620D01*
X101899369Y-63192621D01*
X101890657Y-63194772D01*
X101882897Y-63199284D01*
X101874575Y-63202650D01*
X101874321Y-63202023D01*
X101863919Y-63206583D01*
X101821510Y-63219690D01*
X101810258Y-63222560D01*
X101801644Y-63223054D01*
X101793187Y-63226063D01*
X101793183Y-63226064D01*
X101744761Y-63243294D01*
X101739728Y-63244967D01*
X101718543Y-63251514D01*
X101714501Y-63253427D01*
X101713726Y-63253728D01*
X101703167Y-63258092D01*
X101700902Y-63258898D01*
X101700892Y-63258903D01*
X101696307Y-63260534D01*
X101692027Y-63262851D01*
X101692024Y-63262853D01*
X101677291Y-63270831D01*
X101671192Y-63273922D01*
X101620321Y-63297996D01*
X101613613Y-63303957D01*
X101606919Y-63308383D01*
X101597422Y-63314079D01*
X101561610Y-63333472D01*
X101552320Y-63337898D01*
X101544600Y-63339872D01*
X101524827Y-63351589D01*
X101491635Y-63371257D01*
X101487403Y-63373655D01*
X101470975Y-63382551D01*
X101467029Y-63384688D01*
X101463425Y-63387363D01*
X101460148Y-63389452D01*
X101453725Y-63393721D01*
X101452607Y-63394383D01*
X101452599Y-63394389D01*
X101448413Y-63396869D01*
X101430905Y-63411302D01*
X101425894Y-63415222D01*
X101379774Y-63449456D01*
X101374358Y-63456613D01*
X101370632Y-63460305D01*
X101362094Y-63468024D01*
X101331293Y-63493414D01*
X101323292Y-63499335D01*
X101316251Y-63502673D01*
X101305341Y-63512380D01*
X101270020Y-63543806D01*
X101266415Y-63546894D01*
X101251781Y-63558958D01*
X101251777Y-63558962D01*
X101248328Y-63561805D01*
X101245316Y-63565109D01*
X101242064Y-63568203D01*
X101242060Y-63568199D01*
X101237126Y-63573074D01*
X101236360Y-63573755D01*
X101236355Y-63573761D01*
X101232722Y-63576993D01*
X101229627Y-63580749D01*
X101229625Y-63580751D01*
X101218146Y-63594682D01*
X101214026Y-63599436D01*
X101175124Y-63642113D01*
X101171183Y-63650177D01*
X101168645Y-63653911D01*
X101161679Y-63663209D01*
X101136249Y-63694070D01*
X101129403Y-63701549D01*
X101123051Y-63706232D01*
X101117609Y-63713376D01*
X101085642Y-63755339D01*
X101082653Y-63759111D01*
X101081252Y-63760811D01*
X101067857Y-63777067D01*
X101065524Y-63780898D01*
X101063039Y-63784392D01*
X101058973Y-63790348D01*
X101055299Y-63795172D01*
X101044439Y-63815216D01*
X101041281Y-63820709D01*
X101016010Y-63862208D01*
X101016008Y-63862212D01*
X101011340Y-63869878D01*
X101009011Y-63878546D01*
X101007077Y-63883060D01*
X101002042Y-63893466D01*
X100982421Y-63929681D01*
X100976303Y-63939742D01*
X100970446Y-63946175D01*
X100966509Y-63954241D01*
X100966508Y-63954243D01*
X100944022Y-64000315D01*
X100941579Y-64005064D01*
X100931069Y-64024462D01*
X100929513Y-64028669D01*
X100929297Y-64029145D01*
X100924656Y-64039994D01*
X100923543Y-64042274D01*
X100923539Y-64042285D01*
X100921407Y-64046653D01*
X100915055Y-64067215D01*
X100912856Y-64073701D01*
X100893371Y-64126379D01*
X100892745Y-64135336D01*
X100890983Y-64143518D01*
X100888198Y-64154167D01*
X100875634Y-64194845D01*
X100875346Y-64195777D01*
X100871168Y-64207286D01*
X100870862Y-64208017D01*
X100866255Y-64215718D01*
X100860636Y-64237312D01*
X100851297Y-64273202D01*
X100849751Y-64278640D01*
X100843462Y-64298999D01*
X100842670Y-64303996D01*
X100840168Y-64315972D01*
X100838099Y-64323920D01*
X100837612Y-64328771D01*
X100836028Y-64344536D01*
X100835103Y-64351683D01*
X100831825Y-64372345D01*
X100826435Y-64406322D01*
X100827574Y-64415228D01*
X100827438Y-64424202D01*
X100826739Y-64424191D01*
X100826895Y-64435466D01*
X100817946Y-64524554D01*
X100817946Y-64524555D01*
X100815553Y-64524315D01*
X100815771Y-64527572D01*
X100816862Y-64527631D01*
X100816375Y-64536593D01*
X100816364Y-64536787D01*
X100815050Y-64549330D01*
X100812200Y-64567633D01*
X100812200Y-64575452D01*
X100811569Y-64588043D01*
X100811098Y-64592734D01*
X100811287Y-64597212D01*
X100811812Y-64609662D01*
X100811738Y-64621809D01*
X100810788Y-64639272D01*
X98719042Y-64639272D01*
X99092706Y-63043326D01*
X99220604Y-62497063D01*
X99220978Y-62495510D01*
X99316249Y-62110655D01*
X99472347Y-61480081D01*
X99475246Y-61470142D01*
X99478575Y-61460262D01*
X99603358Y-61089832D01*
X99607231Y-61079778D01*
X99741810Y-60770527D01*
X99747568Y-60758956D01*
X99882222Y-60519957D01*
X99890640Y-60506955D01*
X99904056Y-60488788D01*
X100019403Y-60332595D01*
X100031318Y-60318701D01*
X100148619Y-60200510D01*
X100164601Y-60186891D01*
X100173851Y-60180255D01*
X100267016Y-60113418D01*
X100286971Y-60101716D01*
X100376510Y-60059738D01*
X100399029Y-60051687D01*
X100463257Y-60035404D01*
X100494220Y-60031540D01*
X114074233Y-60031540D01*
X114084941Y-60031996D01*
X114097427Y-60033061D01*
X114102278Y-60032724D01*
X114102282Y-60032724D01*
X114114959Y-60031843D01*
X114123692Y-60031540D01*
X114138177Y-60031540D01*
X114142617Y-60030904D01*
X114142621Y-60030904D01*
X114147635Y-60030186D01*
X114171075Y-60029038D01*
X114229116Y-60031612D01*
G37*
%TD.AperFunction*%
%TD*%
M02*
